<?xml version="1.0" encoding="UTF-8"?>
<svg width="44px" height="82px" viewBox="0 0 44 82" version="1.1" xmlns="http://www.w3.org/2000/svg" xmlns:xlink="http://www.w3.org/1999/xlink">
    <!-- Generator: Sketch 52.2 (67145) - http://www.bohemiancoding.com/sketch -->
    <title>app_design</title>
    <desc>Created with Sketch.</desc>
    <g id="Page-1" stroke="none" stroke-width="1" fill="none" fill-rule="evenodd">
        <g id="lp_webdev" transform="translate(-1080.000000, -1787.000000)" fill="#FFFFFF">
            <g id="3" transform="translate(0.000000, 1494.000000)">
                <g id="Group-6">
                    <g id="app_design" transform="translate(1080.000000, 293.000000)">
                        <path d="M38.2994118,0 L5.70058824,0 C2.55717647,0 0,2.7019 0,6.02016667 L0,75.9784667 C0,79.2981 2.55717647,82 5.70058824,82 L38.2981176,82 C41.4428235,82 44,79.2981 44,75.9798333 L44,6.02016667 C44,2.7019 41.4428235,0 38.2994118,0 Z M2.58823529,10.9333333 L41.4117647,10.9333333 L41.4117647,62.8666667 L2.58823529,62.8666667 L2.58823529,10.9333333 Z M5.70058824,2.73333333 L38.2981176,2.73333333 C40.0154118,2.73333333 41.4117647,4.20796667 41.4117647,6.02016667 L41.4117647,8.2 L2.58823529,8.2 L2.58823529,6.02016667 C2.58823529,4.20796667 3.98458824,2.73333333 5.70058824,2.73333333 Z M38.2994118,79.2666667 L5.70058824,79.2666667 C3.98458824,79.2666667 2.58823529,77.7920333 2.58823529,75.9798333 L2.58823529,65.6 L41.4117647,65.6 L41.4117647,75.9798333 C41.4117647,77.7920333 40.0154118,79.2666667 38.2994118,79.2666667 Z" id="Shape" fill-rule="nonzero"></path>
                        <path d="M22.5,67 C19.46675,67 17,69.46675 17,72.5 C17,75.53325 19.46675,78 22.5,78 C25.53325,78 28,75.53325 28,72.5 C28,69.46675 25.53325,67 22.5,67 Z M22.5,75.25 C20.983375,75.25 19.75,74.016625 19.75,72.5 C19.75,70.983375 20.983375,69.75 22.5,69.75 C24.016625,69.75 25.25,70.983375 25.25,72.5 C25.25,74.016625 24.016625,75.25 22.5,75.25 Z" id="Shape" fill-rule="nonzero"></path>
                        <path d="M17.3333333,7 L22.6666667,7 C23.4026667,7 24,6.3295 24,5.5 C24,4.6705 23.4026667,4 22.6666667,4 L17.3333333,4 C16.5973333,4 16,4.6705 16,5.5 C16,6.3295 16.5973333,7 17.3333333,7 Z" id="Path"></path>
                        <path d="M26.3333333,7 L27.6666667,7 C28.4026667,7 29,6.3295 29,5.5 C29,4.6705 28.4026667,4 27.6666667,4 L26.3333333,4 C25.5973333,4 25,4.6705 25,5.5 C25,6.3295 25.5973333,7 26.3333333,7 Z" id="Path"></path>
                        <path d="M25.19775,15 L19.80225,15 C18.25675,15 17,16.25675 17,17.80225 L17,23.19775 C17,24.74325 18.25675,26 19.80225,26 L25.19775,26 C26.74325,26 28,24.74325 28,23.19775 L28,17.80225 C28,16.25675 26.74325,15 25.19775,15 Z M25.25,23.196375 C25.25,23.22525 25.226625,23.248625 25.19775,23.248625 L19.75,23.196375 L19.80225,17.748625 L25.25,17.80225 L25.25,23.196375 Z" id="Shape" fill-rule="nonzero"></path>
                        <path d="M13.19775,15 L7.80225,15 C6.25675,15 5,16.25675 5,17.80225 L5,23.19775 C5,24.74325 6.25675,26 7.80225,26 L13.19775,26 C14.74325,26 16,24.74325 16,23.19775 L16,17.80225 C16,16.25675 14.74325,15 13.19775,15 Z M13.25,23.196375 C13.25,23.22525 13.226625,23.248625 13.19775,23.248625 L7.75,23.196375 L7.80225,17.748625 L13.25,17.80225 L13.25,23.196375 Z" id="Shape" fill-rule="nonzero"></path>
                        <path d="M36.19775,15 L30.80225,15 C29.25675,15 28,16.25675 28,17.80225 L28,23.19775 C28,24.74325 29.25675,26 30.80225,26 L36.19775,26 C37.74325,26 39,24.74325 39,23.19775 L39,17.80225 C39,16.25675 37.74325,15 36.19775,15 Z M36.25,23.196375 C36.25,23.22525 36.226625,23.248625 36.19775,23.248625 L30.75,23.196375 L30.80225,17.748625 L36.25,17.80225 L36.25,23.196375 Z" id="Shape" fill-rule="nonzero"></path>
                        <path d="M25.19775,27 L19.80225,27 C18.25675,27 17,28.25675 17,29.80225 L17,35.19775 C17,36.74325 18.25675,38 19.80225,38 L25.19775,38 C26.74325,38 28,36.74325 28,35.19775 L28,29.80225 C28,28.25675 26.74325,27 25.19775,27 Z M25.25,35.19775 C25.25,35.22525 25.226625,35.25 25.19775,35.25 L19.75,35.19775 L19.80225,29.75 L25.25,29.80225 L25.25,35.19775 Z" id="Shape" fill-rule="nonzero"></path>
                        <path d="M13.19775,27 L7.80225,27 C6.25675,27 5,28.25675 5,29.80225 L5,35.19775 C5,36.74325 6.25675,38 7.80225,38 L13.19775,38 C14.74325,38 16,36.74325 16,35.19775 L16,29.80225 C16,28.25675 14.74325,27 13.19775,27 Z M13.25,35.19775 C13.25,35.22525 13.226625,35.25 13.19775,35.25 L7.75,35.19775 L7.80225,29.75 L13.25,29.80225 L13.25,35.19775 Z" id="Shape" fill-rule="nonzero"></path>
                        <path d="M36.19775,27 L30.80225,27 C29.25675,27 28,28.25675 28,29.80225 L28,35.19775 C28,36.74325 29.25675,38 30.80225,38 L36.19775,38 C37.74325,38 39,36.74325 39,35.19775 L39,29.80225 C39,28.25675 37.74325,27 36.19775,27 Z M36.25,35.19775 C36.25,35.22525 36.226625,35.25 36.19775,35.25 L30.75,35.19775 L30.80225,29.75 L36.25,29.80225 L36.25,35.19775 Z" id="Shape" fill-rule="nonzero"></path>
                        <path d="M25.19775,40 L19.80225,40 C18.25675,40 17,41.25675 17,42.80225 L17,48.19775 C17,49.74325 18.25675,51 19.80225,51 L25.19775,51 C26.74325,51 28,49.74325 28,48.19775 L28,42.80225 C28,41.25675 26.74325,40 25.19775,40 Z M25.25,48.19775 C25.25,48.22525 25.226625,48.25 25.19775,48.25 L19.75,48.19775 L19.80225,42.75 L25.25,42.80225 L25.25,48.19775 Z" id="Shape" fill-rule="nonzero"></path>
                        <path d="M13.19775,40 L7.80225,40 C6.25675,40 5,41.25675 5,42.80225 L5,48.19775 C5,49.74325 6.25675,51 7.80225,51 L13.19775,51 C14.74325,51 16,49.74325 16,48.19775 L16,42.80225 C16,41.25675 14.74325,40 13.19775,40 Z M13.25,48.19775 C13.25,48.22525 13.226625,48.25 13.19775,48.25 L7.75,48.19775 L7.80225,42.75 L13.25,42.80225 L13.25,48.19775 Z" id="Shape" fill-rule="nonzero"></path>
                        <path d="M36.19775,40 L30.80225,40 C29.25675,40 28,41.25675 28,42.80225 L28,48.19775 C28,49.74325 29.25675,51 30.80225,51 L36.19775,51 C37.74325,51 39,49.74325 39,48.19775 L39,42.80225 C39,41.25675 37.74325,40 36.19775,40 Z M36.25,48.19775 C36.25,48.22525 36.226625,48.25 36.19775,48.25 L30.75,48.19775 L30.80225,42.75 L36.25,42.80225 L36.25,48.19775 Z" id="Shape" fill-rule="nonzero"></path>
                    </g>
                </g>
            </g>
        </g>
    </g>
</svg>