<?xml version="1.0" encoding="UTF-8"?>
<svg width="65px" height="62px" viewBox="0 0 65 62" version="1.1" xmlns="http://www.w3.org/2000/svg" xmlns:xlink="http://www.w3.org/1999/xlink">
    <!-- Generator: Sketch 52.2 (67145) - http://www.bohemiancoding.com/sketch -->
    <title>architecture</title>
    <desc>Created with Sketch.</desc>
    <g id="Page-1" stroke="none" stroke-width="1" fill="none" fill-rule="evenodd">
        <g id="lp_webdev" transform="translate(-1068.000000, -2589.000000)" fill="#000000" fill-rule="nonzero">
            <g id="Group-7" transform="translate(407.000000, 2410.000000)">
                <g id="architecture" transform="translate(661.000000, 179.000000)">
                    <path d="M63.4636689,25.5848389 L56.186676,24.217804 C55.7066345,22.6937256 55.0654221,21.2221527 54.2719651,19.8210602 L58.3220673,14.026062 C58.8254165,13.3056488 58.7262344,12.3463592 58.0840302,11.7337952 L52.6984405,6.59677118 C52.0567322,5.98420718 51.0505295,5.88912958 50.2952576,6.3697204 L44.2198562,10.2328949 C42.750969,9.47605893 41.2081909,8.86444092 39.6103668,8.40655518 L38.1771851,1.46542352 C38.0011367,0.613983094 37.2185898,0 36.3085938,0 L28.6914063,0 C27.7814102,0 26.9988633,0.613983094 26.8228149,1.46542352 L25.3896332,8.40655518 C23.7918091,8.86444092 22.249031,9.47605893 20.7801438,10.2328949 L14.7047424,6.3697204 C13.9494705,5.88960269 12.9432678,5.98420718 12.3015595,6.59677118 L6.91596979,11.7337952 C6.2737656,12.3463592 6.17458347,13.3056488 6.67793268,14.026062 L10.7280349,19.8210602 C9.93457791,21.2221527 9.29336548,22.6937256 8.8128281,24.217804 L1.53583523,25.5848389 C0.643691953,25.7527619 0,26.4991913 0,27.3671875 L0,34.6328125 C0,35.5008087 0.643691953,36.2472381 1.53633111,36.4151611 L8.81332397,37.782196 C9.29336548,39.3062744 9.93457791,40.7778473 10.7280349,42.1789398 L6.67793268,47.973938 C6.17458347,48.6943512 6.27426147,49.6536408 6.91596979,50.2662048 L12.3015595,55.4032288 C12.9432678,56.0157928 13.9494705,56.1103973 14.7047424,55.6302796 L20.7801438,51.7671051 C22.249031,52.5239411 23.7918091,53.1355591 25.3896332,53.5934448 L26.8228149,60.5345765 C26.9988633,61.3860169 27.7814102,62 28.6914063,62 L36.3085938,62 C37.2185898,62 38.0011367,61.3860169 38.1771851,60.5345765 L39.6103668,53.5934448 C41.2081909,53.1355591 42.750969,52.5239411 44.2198562,51.7671051 L50.2952576,55.6302796 C51.0505295,56.1103973 52.0562363,56.0153198 52.6984405,55.4032288 L58.0840302,50.2657318 C58.7262344,49.6536408 58.8254165,48.6943512 58.3220673,47.973938 L54.2719651,42.1789398 C55.0654221,40.7778473 55.7066345,39.3062744 56.186676,37.782196 L63.4636689,36.4151611 C64.356308,36.2472381 65,35.5008087 65,34.6328125 L65,27.3671875 C65,26.4991913 64.356308,25.7527619 63.4636689,25.5848389 Z M61.1914063,33.1394806 L54.2937851,34.4355622 C53.5682678,34.5717926 52.990532,35.0968475 52.8134918,35.781784 C52.3081589,37.7315827 51.4983369,39.591507 50.4058457,41.3104706 C50.0225068,41.9135742 50.0398636,42.6732484 50.4499817,43.2597962 L54.2873383,48.7501678 L51.1090469,51.7817689 L45.3525161,48.121521 C44.7380829,47.7303314 43.9411545,47.7142487 43.3093643,48.079895 C41.5067291,49.1219635 39.5568085,49.8944092 37.5131607,50.375946 C36.7950821,50.5452881 36.2446213,51.0958862 36.1013032,51.7883911 L34.7430039,58.3671875 L30.2574921,58.3671875 L28.8986968,51.7883911 C28.7553787,51.0958862 28.2049179,50.5452881 27.4868393,50.375946 C25.4431915,49.8944092 23.4932709,49.1214905 21.6906357,48.079422 C21.0588455,47.7142487 20.2619171,47.7303314 19.6469879,48.121521 L13.8909531,51.7817689 L10.7126617,48.7501678 L14.5500183,43.2597962 C14.9601364,42.6732484 14.9769973,41.9131012 14.5941543,41.3104706 C13.5016631,39.591507 12.6918411,37.7311097 12.1865082,35.781784 C12.0089722,35.0968475 11.4317322,34.5717926 10.705719,34.4355622 L3.80859375,33.1394806 L3.80859375,28.8609925 L10.705719,27.5649108 C11.4317322,27.4282074 12.0089722,26.9031525 12.1865082,26.218216 C12.6918411,24.2688903 13.5016631,22.4089661 14.5941543,20.6895294 C14.9769973,20.0868988 14.9601364,19.3267516 14.5500183,18.7402038 L10.7126617,13.2498322 L13.8909531,10.2182311 L19.6469879,13.878479 C20.2619171,14.2696686 21.0588455,14.2857513 21.6906357,13.920578 C23.4932709,12.8785095 25.4431915,12.1060638 27.4868393,11.624054 C28.2049179,11.4547119 28.7553787,10.9041138 28.8986968,10.2116089 L30.2569961,3.6328125 L34.7425079,3.6328125 L36.1013032,10.2116089 C36.2446213,10.9041138 36.7950821,11.4547119 37.5131607,11.624054 C39.5568085,12.1055908 41.5067291,12.8785095 43.3093643,13.920578 C43.9411545,14.2857513 44.7380829,14.2696686 45.3530121,13.878479 L51.1090469,10.2182311 L54.2873383,13.2498322 L50.4499817,18.7402038 C50.0398636,19.3267516 50.0230027,20.0868988 50.4058457,20.6895294 C51.4983369,22.408493 52.3086548,24.2688903 52.8134918,26.218216 C52.990532,26.9031525 53.5682678,27.4282074 54.294281,27.5644378 L61.1914063,28.8605194 L61.1914063,33.1394806 Z" id="Shape"></path>
                    <path d="M33,15 C23.6263889,15 16,22.4020833 16,31.5 C16,40.5979167 23.6263889,48 33,48 C42.3736111,48 50,40.5979167 50,31.5 C50,22.4020833 42.3736111,15 33,15 Z M33,44.3333333 C25.7090856,44.3333333 19.7777778,38.5764758 19.7777778,31.5 C19.7777778,24.4235242 25.7090856,18.6666667 33,18.6666667 C40.2909144,18.6666667 46.2222222,24.4235242 46.2222222,31.5 C46.2222222,38.5764758 40.2909144,44.3333333 33,44.3333333 Z" id="Shape"></path>
                    <path d="M32.5,22 C27.2616406,22 23,26.0373437 23,31 C23,35.9626563 27.2616406,40 32.5,40 C37.7383594,40 42,35.9626563 42,31 C42,26.0373437 37.7383594,22 32.5,22 Z M32.5,36.4 C29.3570833,36.4 26.8,33.9775 26.8,31 C26.8,28.0225 29.3570833,25.6 32.5,25.6 C35.6429167,25.6 38.2,28.0225 38.2,31 C38.2,33.9775 35.6429167,36.4 32.5,36.4 Z" id="Shape"></path>
                </g>
            </g>
        </g>
    </g>
</svg>