<?xml version="1.0" encoding="UTF-8"?>
<svg width="76px" height="73px" viewBox="0 0 76 73" version="1.1" xmlns="http://www.w3.org/2000/svg" xmlns:xlink="http://www.w3.org/1999/xlink">
    <!-- Generator: Sketch 52.2 (67145) - http://www.bohemiancoding.com/sketch -->
    <title>audit</title>
    <desc>Created with Sketch.</desc>
    <g id="Page-1" stroke="none" stroke-width="1" fill="none" fill-rule="evenodd">
        <g id="lp_webdev" transform="translate(-1068.000000, -2449.000000)" fill-rule="nonzero">
            <g id="Group-7" transform="translate(407.000000, 2410.000000)">
                <g id="audit" transform="translate(661.000000, 39.000000)">
                    <path d="M19.6289063,11.375 C19.6289063,7.23925775 16.1069489,3.875 11.7773438,3.875 C7.44773858,3.875 3.92578125,7.23925775 3.92578125,11.375 C3.92578125,15.5107422 7.44773858,18.875 11.7773438,18.875 C16.1069489,18.875 19.6289063,15.5107422 19.6289063,11.375 Z M11.7773438,15.125 C9.61254117,15.125 7.8515625,13.4428711 7.8515625,11.375 C7.8515625,9.30712887 9.61254117,7.625 11.7773438,7.625 C13.9421463,7.625 15.703125,9.30712887 15.703125,11.375 C15.703125,13.4428711 13.9421463,15.125 11.7773438,15.125 Z" id="Shape" fill="#000000"></path>
                    <path d="M35.7734375,38.6386719 L35.7734375,64.4453125 L53.734375,64.4453125 L53.734375,73 L76,73 L76,51.6132812 L53.734375,51.6132812 L53.734375,60.1679688 L40.2265625,60.1679688 L40.2265625,38.6386719 L53.734375,38.6386719 L53.734375,47.1933594 L76,47.1933594 L76,25.8066406 L53.734375,25.8066406 L53.734375,34.3613281 L40.2265625,34.3613281 L40.2265625,12.8320312 L53.734375,12.8320312 L53.734375,21.3867188 L76,21.3867188 L76,0 L53.734375,0 L53.734375,8.5546875 L35.7734375,8.5546875 L35.7734375,34.3613281 L26.71875,34.3613281 C26.71875,27.3076096 20.7806702,21.5292969 13.359375,21.5292969 C5.99316406,21.5292969 0,27.2858887 0,34.3613281 L0,38.6386719 L35.7734375,38.6386719 Z M58,69 L58,63.3614061 L62.3333333,67.7228122 L71,59 L71,69 L58,69 Z M68,56 L62.3614061,62 L59.5418252,59.0003021 L58,60.6409508 L58,56 L68,56 Z M58,43 L58,37.3614061 L62.3333333,41.7228122 L71,33 L71,43 L58,43 Z M68,30 L62.3614061,36 L59.5418252,33.0003021 L58,34.6409508 L58,30 L68,30 Z M58,17 L58,11.3614061 L62.3333333,15.7228122 L71,7 L71,17 L58,17 Z M68,4 L62.3614061,10 L59.5418252,7.00030213 L58,8.64095078 L58,4 L68,4 Z M4,35 C4,30.0371093 8.0371093,26 13,26 C17.978125,26 22,30.0330079 22,35 L4,35 Z" id="Shape" fill="#313131"></path>
                </g>
            </g>
        </g>
    </g>
</svg>