<?xml version="1.0" encoding="UTF-8"?>
<svg width="74px" height="74px" viewBox="0 0 74 74" version="1.1" xmlns="http://www.w3.org/2000/svg" xmlns:xlink="http://www.w3.org/1999/xlink">
    <!-- Generator: sketchtool 52.2 (67145) - http://www.bohemiancoding.com/sketch -->
    <title>05CE67DB-A76A-4F34-8460-42DF8DAFC800</title>
    <desc>Created with sketchtool.</desc>
    <g id="Page-1" stroke="none" stroke-width="1" fill="none" fill-rule="evenodd">
        <g id="lp_webdev" transform="translate(-1066.000000, -4029.000000)">
            <g id="Group-9" transform="translate(0.000000, 3742.000000)">
                <g id="bootstr" transform="translate(1066.000000, 287.000000)">
                    <rect id="Rectangle" stroke="#FFFFFF" stroke-width="3" fill-rule="nonzero" x="1.5" y="1.5" width="71" height="71" rx="7"></rect>
                    <path d="M23,20 L36.8387622,20 C39.5781896,20 41.6209216,20.1153922 42.9670195,20.3461801 C44.3131175,20.576968 45.5175028,21.058432 46.5802117,21.7905866 C47.6429206,22.5227413 48.5284981,23.4976065 49.2369707,24.7152115 C49.9454433,25.9328165 50.2996743,27.2976277 50.2996743,28.8096862 C50.2996743,30.449076 49.8627894,31.9531537 48.9890065,33.3219645 C48.1152236,34.6907754 46.9305178,35.7173681 45.4348534,36.4017735 C47.5445274,37.0225133 49.1661181,38.0809384 50.2996743,39.5770805 C51.4332304,41.0732226 52,42.831959 52,44.8533424 C52,46.4449829 51.6339613,47.9928301 50.901873,49.4969304 C50.1697846,51.0010307 49.1700661,52.2027013 47.9026873,53.1019782 C46.6353085,54.0012551 45.0727563,54.5543418 43.2149837,54.7612551 C42.0499399,54.8885864 39.2397074,54.9681672 34.784202,55 L23,55 L23,20 Z M29.990228,25.8253752 L29.990228,33.9188267 L34.5716612,33.9188267 C37.2953448,33.9188267 38.9877817,33.8790363 39.6490228,33.7994543 C40.8455543,33.6562067 41.7862344,33.2384073 42.4710912,32.5460437 C43.155948,31.85368 43.4983713,30.9424795 43.4983713,29.8124147 C43.4983713,28.7300992 43.2031788,27.850731 42.612785,27.1742838 C42.0223912,26.4978365 41.1446855,26.0879953 39.9796417,25.9447476 C39.2869129,25.8651656 37.2953476,25.8253752 34.004886,25.8253752 L29.990228,25.8253752 Z M29.990228,39.7442019 L29.990228,49.1030014 L36.4609121,49.1030014 C38.9799257,49.1030014 40.5779011,49.0313786 41.254886,48.888131 C42.2939791,48.6971341 43.1401976,48.2315862 43.7935668,47.4914734 C44.4469359,46.7513606 44.7736156,45.7605792 44.7736156,44.5190996 C44.7736156,43.4686168 44.521718,42.5773115 44.0179153,41.8451569 C43.5141126,41.1130023 42.7859711,40.5798107 41.8334691,40.2455662 C40.880967,39.9113217 38.8146196,39.7442019 35.6343648,39.7442019 L29.990228,39.7442019 Z" id="B" fill="#FFFFFF"></path>
                </g>
            </g>
        </g>
    </g>
</svg>