<?xml version="1.0" encoding="UTF-8"?>
<svg width="67px" height="82px" viewBox="0 0 67 82" version="1.1" xmlns="http://www.w3.org/2000/svg" xmlns:xlink="http://www.w3.org/1999/xlink">
    <!-- Generator: Sketch 52.2 (67145) - http://www.bohemiancoding.com/sketch -->
    <title>branding</title>
    <desc>Created with Sketch.</desc>
    <g id="Page-1" stroke="none" stroke-width="1" fill="none" fill-rule="evenodd">
        <g id="lp_webdev" transform="translate(-1066.000000, -1936.000000)" fill="#FFFFFF">
            <g id="3" transform="translate(0.000000, 1494.000000)">
                <g id="Group-6">
                    <g id="branding" transform="translate(1066.000000, 442.000000)">
                        <path d="M67,0.0249967823 L59.8581941,5.77981154 L52.6758816,23.8066577 L46.9002064,23.8066577 L44.6323521,18.5162276 L46.1140685,18.5162276 C48.8243995,18.5162276 51.0285268,16.168752 51.0285268,13.251072 L51.0285268,7.9353674 L53.4857559,7.9353674 L53.4857559,0 L46.1140685,0 L46.1140685,7.9353674 L48.5712976,7.9353674 L48.5712976,13.251072 C48.5712976,14.7086622 47.469363,15.8710125 46.1140685,15.8710125 L43.498425,15.8710125 L40.3580016,8.55723179 L44.1199564,6.5388805 L31.8020764,0.859611568 L28.9062406,11.7695961 C28.8275494,5.27848719 23.9045771,0.0238858142 17.8561917,0.0238858142 C11.7587856,0.0238858142 6.79891869,5.3631985 6.79891869,11.9270758 C6.79891869,15.8935096 8.66506088,19.6138641 11.7133769,21.8133032 L11.7133769,23.8063799 L8.73781798,23.8063799 L8.54612108,24.8909625 C7.94910007,28.2252556 7.89362923,31.6520367 8.3815146,35.0696523 L0,51.1523042 L9.25614781,53.4284001 L9.25614781,70.09681 L21.5420354,70.09681 L21.5420354,82 L51.0282688,82 L51.0282688,63.5698724 C59.6283127,57.0204377 64.5401908,46.4901266 64.5329667,35.2560172 L64.5355468,30.4313605 C64.5355468,28.6127057 64.3794544,26.7440573 64.0649477,24.9029055 L63.8830549,23.8063799 L61.4712345,23.8063799 L67,9.54765985 L67,0.0249967823 Z M48.5710396,5.31542688 L48.5710396,2.67021183 L51.0282688,2.67021183 L51.0282688,5.31542688 L48.5710396,5.31542688 Z M44.1937455,23.8063799 L39.5336791,23.8063799 L37.3001394,18.5159498 L41.9258913,18.5159498 L44.1937455,23.8063799 Z M33.3967984,4.4769237 L38.2805542,6.72941153 L37.1280508,7.33766656 L40.7917061,15.8710125 L36.1832405,15.8710125 L33.1891053,8.79664542 L32.0894927,9.39434626 L33.3967984,4.4769237 Z M36.8344424,23.8066577 L31.3709518,23.8066577 L31.3709518,21.1867172 C31.3709518,19.728016 32.4728865,18.5165053 33.828181,18.5165053 L34.6009026,18.5165053 L34.6009026,18.5162276 L36.8344424,23.8066577 Z M32.0097695,12.4017369 L33.5,15.931838 C30.9444714,16.117092 28.9137227,18.3892995 28.9137227,21.1864394 L28.9137227,23.8063799 L23.9992645,23.8063799 L23.9992645,21.8133032 C26.4577836,20.0396426 28.1260368,17.2716656 28.6887433,14.1887291 L32.0097695,12.4017369 Z M9.25640581,11.9284645 C9.25640581,6.82467704 13.1153701,2.67048957 17.8564497,2.67048957 C22.5975293,2.67048957 26.4564936,6.82467704 26.4564936,11.9284645 C26.4564936,15.2138749 24.8078487,18.2834798 22.1553106,19.937989 L21.5422934,20.3187733 L21.5422934,23.8063799 L19.0850643,23.8063799 L19.0850643,15.6513186 C20.5115678,15.1038891 21.5422934,13.6487986 21.5422934,11.926798 C21.5422934,9.73930185 19.8884884,7.95897547 17.8564497,7.95897547 C15.824411,7.95897547 14.170606,9.73957959 14.170606,11.9270758 C14.170606,13.6490763 15.2013316,15.1038891 16.6278352,15.6515963 L16.6278352,23.8066577 L14.170606,23.8066577 L14.170606,20.3187733 L13.5575888,19.9366003 C10.9050507,18.2820911 9.25640581,15.2135972 9.25640581,11.9284645 Z M17.8564497,13.251072 C17.1781575,13.251072 16.6278352,12.6569818 16.6278352,11.9284645 C16.6278352,11.1982807 17.1781575,10.605857 17.8564497,10.605857 C18.534742,10.605857 19.0850643,11.1982807 19.0850643,11.9284645 C19.0850643,12.6586483 18.534742,13.251072 17.8564497,13.251072 Z M61.8151537,26.4518727 C61.9934344,27.7742025 62.0832197,29.1154187 62.0832197,30.4194176 L62.0857998,35.2535175 C62.0932819,45.8488203 57.2366165,55.7705986 49.1118158,61.7923235 L48.5712976,62.1892168 L48.5712976,79.3550627 L23.9995225,79.3550627 L23.9995225,67.4518727 L11.7133769,67.4518727 L11.7133769,51.3189495 L3.75086065,49.3628124 L10.9429773,35.5590337 L10.8730582,35.0868723 C10.4161333,32.1930781 10.3903329,29.09681 10.7871429,26.4518727 L11.7133769,26.4518727 L23.9992645,26.4518727 L61.8151537,26.4518727 Z M58.8088923,23.8063799 L55.348028,23.8063799 L61.4725245,8.43530304 L64.1962717,9.89539287 L58.8088923,23.8063799 Z M64.5427709,7.14185843 L63.1838644,6.41056368 L64.5427709,5.31542688 L64.5427709,7.14185843 Z" id="Shape" fill-rule="nonzero"></path>
                        <path d="M20,34.2 C18.0152877,34.2 16.4,32.8 16.4,30 L14,30 C14,34.2 16.6915582,37 20,37 C23.3084418,37 26,34.2 26,30 L23.6,30 C23.599748,32.8 21.9847123,34.2 20,34.2 Z" id="Path"></path>
                    </g>
                </g>
            </g>
        </g>
    </g>
</svg>