<?xml version="1.0" encoding="UTF-8"?>
<svg width="67px" height="72px" viewBox="0 0 67 72" version="1.1" xmlns="http://www.w3.org/2000/svg" xmlns:xlink="http://www.w3.org/1999/xlink">
    <!-- Generator: Sketch 52.2 (67145) - http://www.bohemiancoding.com/sketch -->
    <title>graphic</title>
    <desc>Created with Sketch.</desc>
    <g id="Page-1" stroke="none" stroke-width="1" fill="none" fill-rule="evenodd">
        <g id="lp_webdev" transform="translate(-1066.000000, -2085.000000)" fill="#FFFFFF" fill-rule="nonzero">
            <g id="3" transform="translate(0.000000, 1494.000000)">
                <g id="Group-6">
                    <g id="graphic" transform="translate(1066.000000, 591.000000)">
                        <path d="M66.1107414,23.7343173 L62.7670199,20.1476015 C62.2028529,19.5424354 61.4460434,19.202952 60.6479535,19.202952 C59.8498636,19.202952 59.0930542,19.5424354 58.5288872,20.1476015 L58.0748016,20.6346863 C53.6577867,17.4760148 48.5252429,15.8081181 43.1450161,15.7933579 C43.1312559,15.7933579 43.1174957,15.7933579 43.0899754,15.7933579 C39.7462538,15.7933579 36.5126137,16.4280443 33.4716159,17.6678967 L39.3334487,11.3800738 C40.0764979,11.7638376 40.888348,11.9557196 41.7277185,11.9557196 C43.2138169,11.9557196 44.6173544,11.3357934 45.6631274,10.199262 C46.7089003,9.07749077 47.3005877,7.57195572 47.3005877,5.97785978 C47.3005877,4.38376384 46.7226605,2.87822878 45.6631274,1.75645756 C44.6035942,0.634686347 43.2138169,0 41.7277185,0 C40.24162,0 38.8380826,0.619926199 37.7923096,1.75645756 C36.7465366,2.89298893 36.1548492,4.38376384 36.1548492,5.97785978 C36.1548492,6.87822878 36.3474916,7.76383764 36.6914959,8.54612546 L26.1374448,19.8671587 L25.7796803,19.4833948 C25.2155133,18.8782288 24.4587039,18.5387454 23.660614,18.5387454 C22.8625241,18.5387454 22.1057147,18.8782288 21.5415476,19.4833948 L18.1565456,23.099631 C17.5923786,23.704797 17.2758946,24.5166052 17.2758946,25.3726937 C17.2758946,26.2287823 17.5923786,27.0405904 18.1565456,27.6457565 L18.51431,28.0295203 L7.9602589,39.3505535 C7.21720967,38.9667897 6.40535958,38.7749077 5.56598916,38.7749077 C4.07989069,38.7749077 2.67635325,39.3948339 1.63058026,40.5313653 C-0.543526753,42.8634686 -0.543526753,46.6568266 1.63058026,48.9741697 C2.67635325,50.095941 4.07989069,50.7306273 5.56598916,50.7306273 C7.05208762,50.7306273 8.45562506,50.1107011 9.50139805,48.9741697 C11.2076593,47.1439114 11.5791839,44.398524 10.5884516,42.1845018 L16.4502844,35.896679 C15.29443,39.1734317 14.6889825,42.6715867 14.7027427,46.2730627 C14.7165028,52.0442804 16.2714022,57.5498155 19.2160788,62.2878229 L18.6519117,62.8929889 C17.4822972,64.1476015 17.4822972,66.199262 18.6519117,67.4538745 L22.0093935,71.0553506 C22.5735605,71.6605166 23.3303699,72 24.1284598,72 C24.9265497,72 25.6833591,71.6605166 26.2475261,71.0553506 L29.6050078,67.4538745 C30.7746224,66.199262 30.7746224,64.1476015 29.6050078,62.8929889 L26.2475261,59.2915129 C25.6833591,58.6863469 24.9265497,58.3468635 24.1284598,58.3468635 C23.3303699,58.3468635 22.5735605,58.6863469 22.0093935,59.2915129 L21.9130723,59.3948339 C17.0832523,50.99631 17.2896548,40.1328413 22.5598003,31.9557196 C22.9038046,32.103321 23.261569,32.1771218 23.6468538,32.1771218 C24.4449437,32.1771218 25.2017531,31.8376384 25.7659201,31.2324723 L29.1234019,27.6309963 C29.9902926,26.701107 30.2104554,25.3431734 29.7976502,24.1918819 C37.4207849,18.5387454 47.5482708,18.302583 55.3778081,23.498155 L55.1714055,23.7195572 C54.001791,24.9741697 54.001791,27.0258303 55.1714055,28.2804428 L58.5288872,31.8819188 C59.0930542,32.4870849 59.8498636,32.8265683 60.6479535,32.8265683 C61.4460434,32.8265683 62.2028529,32.4870849 62.7670199,31.8819188 L66.1245016,28.2804428 C67.2941161,27.0405904 67.2941161,25.00369 66.1107414,23.7343173 Z M26.4676889,65.195572 L24.1146996,67.7195572 L21.7617104,65.195572 L24.1146996,62.6715867 L26.4676889,65.195572 Z M40.3929819,4.5904059 C40.7369861,4.22140221 41.204832,4.01476015 41.7001981,4.01476015 C42.1955643,4.01476015 42.6634101,4.22140221 43.0074144,4.5904059 C43.3514186,4.95940959 43.544061,5.46125461 43.544061,5.99261993 C43.544061,6.52398524 43.3514186,7.02583026 43.0074144,7.39483395 C42.6634101,7.76383764 42.1955643,7.9704797 41.7001981,7.9704797 C41.204832,7.9704797 40.7369861,7.76383764 40.3929819,7.39483395 C40.0489776,7.02583026 39.8563352,6.52398524 39.8563352,5.99261993 C39.8563352,5.46125461 40.0489776,4.97416974 40.3929819,4.5904059 Z M6.8732054,46.1697417 C6.52920112,46.5387454 6.06135531,46.7453875 5.56598916,46.7453875 C5.070623,46.7453875 4.60277719,46.5387454 4.25877291,46.1697417 C3.52948385,45.3874539 3.52948385,44.1328413 4.25877291,43.3653137 C4.60277719,42.99631 5.070623,42.7896679 5.56598916,42.7896679 C6.06135531,42.7896679 6.52920112,42.99631 6.8732054,43.3653137 C7.60249446,44.1328413 7.60249446,45.402214 6.8732054,46.1697417 Z M23.6330936,27.896679 L21.2801044,25.3726937 L23.6330936,22.8487085 L24.8027082,24.103321 L25.9723227,25.3579336 L23.6330936,27.896679 Z M60.6341934,28.5313653 L58.2812041,26.0073801 L60.6341934,23.4833948 L62.9871826,26.0073801 L60.6341934,28.5313653 Z" id="Shape"></path>
                    </g>
                </g>
            </g>
        </g>
    </g>
</svg>