<?xml version="1.0" encoding="UTF-8"?>
<svg width="155px" height="50px" viewBox="0 0 155 50" version="1.1" xmlns="http://www.w3.org/2000/svg" xmlns:xlink="http://www.w3.org/1999/xlink">
    <!-- Generator: sketchtool 52.2 (67145) - http://www.bohemiancoding.com/sketch -->
    <title>30CCA435-BB97-40BB-919D-503D61872CC9</title>
    <desc>Created with sketchtool.</desc>
    <g id="Page-1" stroke="none" stroke-width="1" fill="none" fill-rule="evenodd">
        <g id="lp_webdev" transform="translate(-407.000000, -35.000000)">
            <g id="1">
                <g id="logo" transform="translate(407.000000, 35.000000)">
                    <path d="M61.9427527,13 C62.7953758,13 63.5769351,13.0860751 64.2874543,13.2582278 C64.9979735,13.4303806 65.5460801,13.5974675 65.9317905,13.7594937 L65.0487211,17.3746835 C64.6427101,17.1924042 64.2011798,17.0556967 63.7241169,16.964557 C63.247054,16.8734173 62.8055238,16.8278481 62.3995128,16.8278481 C61.851398,16.8278481 61.3895674,16.9037967 61.0140073,17.0556962 C60.6384472,17.2075957 60.3440936,17.4151886 60.1309379,17.678481 C59.9177821,17.9417735 59.7655303,18.2556944 59.6741778,18.6202532 C59.5828254,18.9848119 59.5371498,19.3797447 59.5371498,19.8050633 L59.5371498,20.5949367 L65.1400731,20.5949367 L65.1400731,24.3620253 L59.5371498,24.3620253 L59.5371498,36.5746835 L55,36.5746835 L55,19.7443038 C55,17.6784707 55.583632,16.0379808 56.7509135,14.8227848 C57.918195,13.6075889 59.6487908,13 61.9427527,13 Z M77.5030451,24.6050633 C77.0970341,24.503797 76.6199784,24.3974689 76.0718636,24.2860759 C75.5237488,24.174683 74.9350417,24.1189873 74.3057247,24.1189873 C74.0215171,24.1189873 73.681488,24.1443035 73.2856273,24.1949367 C72.8897666,24.2455699 72.590338,24.3012655 72.3873325,24.3620253 L72.3873325,36.5746835 L67.8501827,36.5746835 L67.8501827,21.4455696 C68.6622046,21.1620239 69.6213911,20.8936722 70.727771,20.6405063 C71.8341509,20.3873405 73.0673907,20.2607595 74.4275274,20.2607595 C74.671134,20.2607595 74.9654875,20.2759492 75.3105968,20.3063291 C75.6557062,20.336709 76.0008103,20.3772149 76.3459196,20.4278481 C76.6910289,20.4784813 77.0361331,20.5392402 77.3812424,20.6101266 C77.7263517,20.681013 78.0207052,20.7670881 78.2643118,20.8683544 L77.5030451,24.6050633 Z M85.2375152,36.5746835 L80.7003654,36.5746835 L80.7003654,20.5949367 L85.2375152,20.5949367 L85.2375152,36.5746835 Z M85.6638246,15.9772152 C85.6638246,16.8075991 85.3948464,17.4607571 84.8568819,17.9367089 C84.3189173,18.4126606 83.6845347,18.6506329 82.953715,18.6506329 C82.2228952,18.6506329 81.5885126,18.4126606 81.0505481,17.9367089 C80.5125836,17.4607571 80.2436054,16.8075991 80.2436054,15.9772152 C80.2436054,15.1468313 80.5125836,14.4936733 81.0505481,14.0177215 C81.5885126,13.5417698 82.2228952,13.3037975 82.953715,13.3037975 C83.6845347,13.3037975 84.3189173,13.5417698 84.8568819,14.0177215 C85.3948464,14.4936733 85.6638246,15.1468313 85.6638246,15.9772152 Z M88.7393423,28.7063291 C88.7393423,27.2886005 88.9575699,26.0481066 89.3940317,24.9848101 C89.8304935,23.9215137 90.4039753,23.0354466 91.1144945,22.3265823 C91.8250137,21.617718 92.6420985,21.0810145 93.5657734,20.7164557 C94.4894484,20.3518969 95.4384848,20.1696203 96.4129111,20.1696203 C98.6865725,20.1696203 100.483144,20.8632842 101.80268,22.2506329 C103.122215,23.6379816 103.781973,25.6784675 103.781973,28.3721519 C103.781973,28.6354444 103.771823,28.9240491 103.751523,29.2379747 C103.731222,29.5519003 103.710922,29.8303785 103.690621,30.0734177 L93.3982948,30.0734177 C93.4997975,31.0050679 93.9362527,31.7443011 94.7076736,32.2911392 C95.4790944,32.8379774 96.5144068,33.1113924 97.8136419,33.1113924 C98.6459644,33.1113924 99.4630492,33.0354438 100.264921,32.8835443 C101.066792,32.7316448 101.721475,32.5443049 102.228989,32.321519 L102.838002,35.9974684 C102.594396,36.1189879 102.269592,36.2405057 101.863581,36.3620253 C101.45757,36.4835449 101.00589,36.589873 100.508526,36.6810127 C100.011163,36.7721524 99.4782814,36.848101 98.909866,36.9088608 C98.3414507,36.9696206 97.7730438,37 97.2046285,37 C95.7632896,37 94.5097495,36.7873439 93.4439708,36.3620253 C92.378192,35.9367067 91.4951314,35.3544341 90.7947625,34.6151899 C90.0943936,33.8759457 89.5767374,33.0000051 89.2417783,31.9873418 C88.9068193,30.9746785 88.7393423,29.8810185 88.7393423,28.7063291 Z M99.3970767,26.9746835 C99.3767762,26.5898715 99.3108004,26.2151917 99.1991474,25.8506329 C99.0874944,25.4860741 98.9149423,25.1620267 98.681486,24.878481 C98.4480297,24.5949353 98.1536762,24.3620262 97.7984166,24.1797468 C97.443157,23.9974674 97.0016267,23.9063291 96.4738124,23.9063291 C95.9662987,23.9063291 95.5298435,23.9924042 95.1644336,24.164557 C94.7990238,24.3367097 94.4945201,24.5645555 94.2509135,24.8481013 C94.0073069,25.131647 93.8195297,25.4607576 93.6875761,25.835443 C93.5556226,26.2101285 93.4591964,26.5898715 93.3982948,26.9746835 L99.3970767,26.9746835 Z M107.2838,21.1417722 C108.055221,20.9189862 109.049933,20.7113934 110.267966,20.5189873 C111.485999,20.3265813 112.764914,20.2303797 114.10475,20.2303797 C115.464887,20.2303797 116.596626,20.4075932 117.5,20.7620253 C118.403374,21.1164575 119.118958,21.6177183 119.646772,22.2658228 C120.174586,22.9139273 120.550141,23.6835398 120.773447,24.5746835 C120.996753,25.4658272 121.108404,26.4582224 121.108404,27.5518987 L121.108404,36.5746835 L116.571255,36.5746835 L116.571255,28.0987342 C116.571255,26.640499 116.378402,25.607598 115.992692,25 C115.606981,24.392402 114.886323,24.0886076 113.830694,24.0886076 C113.505886,24.0886076 113.160781,24.1037973 112.795371,24.1341772 C112.429962,24.1645571 112.105158,24.1999998 111.82095,24.2405063 L111.82095,36.5746835 L107.2838,36.5746835 L107.2838,21.1417722 Z M129.08648,28.4632911 C129.08648,29.8607665 129.401134,30.9848059 130.030451,31.835443 C130.659768,32.6860802 131.593579,33.1113924 132.831912,33.1113924 C133.237923,33.1113924 133.613478,33.0962027 133.958587,33.0658228 C134.303696,33.0354429 134.5879,33.0000002 134.811206,32.9594937 L134.811206,24.7265823 C134.526998,24.5443029 134.156519,24.3924057 133.699756,24.2708861 C133.242994,24.1493665 132.781164,24.0886076 132.314251,24.0886076 C130.162393,24.0886076 129.08648,25.5468209 129.08648,28.4632911 Z M139.348356,36.0582278 C138.942345,36.1797474 138.475439,36.296202 137.947625,36.4075949 C137.419811,36.5189879 136.866629,36.6151895 136.288063,36.6962025 C135.709498,36.7772156 135.120791,36.8430377 134.521924,36.8936709 C133.923058,36.9443041 133.349576,36.9696203 132.801462,36.9696203 C131.481926,36.9696203 130.304512,36.7772171 129.269184,36.3924051 C128.233856,36.007593 127.360945,35.4556998 126.650426,34.7367089 C125.939907,34.0177179 125.396876,33.1468406 125.021315,32.1240506 C124.645755,31.1012607 124.457978,29.9519051 124.457978,28.6759494 C124.457978,27.3797404 124.62038,26.2101318 124.945189,25.1670886 C125.269998,24.1240454 125.736903,23.2379783 126.34592,22.5088608 C126.954936,21.7797432 127.70097,21.2227867 128.584044,20.8379747 C129.467118,20.4531626 130.477055,20.2607595 131.613886,20.2607595 C132.243202,20.2607595 132.806534,20.3215184 133.303898,20.443038 C133.801261,20.5645576 134.303692,20.7367077 134.811206,20.9594937 L134.811206,13.7291139 L139.348356,13 L139.348356,36.0582278 Z M148.209501,33.3240506 C149.041823,33.3240506 149.63053,33.2430388 149.975639,33.0810127 C150.320749,32.9189865 150.493301,32.6050656 150.493301,32.1392405 C150.493301,31.7746817 150.269998,31.4556976 149.823386,31.1822785 C149.376774,30.9088594 148.696716,30.6000017 147.783191,30.2556962 C147.072672,29.9924037 146.428139,29.7189888 145.849574,29.435443 C145.271008,29.1518973 144.778727,28.8126602 144.372716,28.4177215 C143.966705,28.0227828 143.652051,27.5519015 143.428745,27.0050633 C143.205439,26.4582251 143.093788,25.8000038 143.093788,25.0303797 C143.093788,23.5316381 143.652045,22.3468398 144.768575,21.4759494 C145.885105,20.6050589 147.417773,20.1696203 149.366626,20.1696203 C150.341052,20.1696203 151.274864,20.2556953 152.168088,20.4278481 C153.061312,20.6000009 153.77182,20.7873408 154.299635,20.9898734 L153.507917,24.5139241 C152.980103,24.3316447 152.406621,24.169621 151.787454,24.0278481 C151.168288,23.8860752 150.473004,23.8151899 149.701583,23.8151899 C148.280545,23.8151899 147.570037,24.2101226 147.570037,25 C147.570037,25.1822794 147.600487,25.3443031 147.661389,25.4860759 C147.72229,25.6278488 147.844092,25.7645563 148.026797,25.8962025 C148.209502,26.0278488 148.45818,26.1696195 148.772838,26.321519 C149.087496,26.4734185 149.488426,26.6405054 149.975639,26.8227848 C150.970366,27.1873436 151.792526,27.5468337 152.442144,27.9012658 C153.091761,28.255698 153.604342,28.6405043 153.979903,29.0556962 C154.355463,29.4708882 154.619366,29.931643 154.77162,30.4379747 C154.923874,30.9443063 155,31.5316422 155,32.2 C155,33.7797547 154.406218,34.9746795 153.218636,35.7848101 C152.031054,36.5949408 150.351209,37 148.17905,37 C146.758012,37 145.575522,36.8784822 144.631547,36.635443 C143.687571,36.3924038 143.032889,36.1898742 142.667479,36.0278481 L143.428745,32.3518987 C144.200166,32.6556977 144.991876,32.89367 145.803898,33.0658228 C146.61592,33.2379755 147.417779,33.3240506 148.209501,33.3240506 Z" id="friends" fill="#FFFFFF"></path>
                    <circle id="Oval" fill="#4A998C" cx="25" cy="25" r="25"></circle>
                    <path d="M13.6516652,24.8571429 C13.6516652,27.3754705 14.6819579,28.6346154 16.7425743,28.6346154 C17.2118235,28.6346154 17.650463,28.5741764 18.0585059,28.4532967 C18.4665487,28.332417 18.8133799,28.1913927 19.0990099,28.0302198 L19.0990099,20.8379121 C18.8745863,20.7976188 18.6093625,20.7623628 18.3033303,20.7321429 C17.9972982,20.7019229 17.6402661,20.6868132 17.2322232,20.6868132 C16.0284968,20.6868132 15.130816,21.0796664 14.5391539,21.8653846 C13.9474918,22.6511028 13.6516652,23.6483456 13.6516652,24.8571429 Z M23.6588659,31.3241758 C23.6588659,33.9230899 22.9907058,35.8520999 21.6543654,37.1112637 C20.3180251,38.3704275 18.2523392,39 15.4572457,39 C14.4779429,39 13.4986548,38.9143781 12.5193519,38.7431319 C11.5400491,38.5718856 10.6321674,38.3452395 9.79567957,38.0631868 L10.5913591,34.2857143 C11.3054341,34.567767 12.0552016,34.7893765 12.8406841,34.9505495 C13.6261665,35.1117224 14.5187469,35.1923077 15.5184518,35.1923077 C16.8241889,35.1923077 17.747372,34.9102592 18.2880288,34.3461538 C18.8286856,33.7820485 19.0990099,33.056781 19.0990099,32.1703297 L19.0990099,31.5961538 C18.6093585,31.8177667 18.104413,31.9839738 17.5841584,32.0947802 C17.0639038,32.2055866 16.4977528,32.260989 15.8856886,32.260989 C13.6618551,32.260989 11.9583017,31.6112702 10.7749775,30.3118132 C9.59165325,29.0123561 9,27.1941509 9,24.8571429 C9,23.6886388 9.18361653,22.6259205 9.55085509,21.668956 C9.91809365,20.7119916 10.4536418,19.8910291 11.1575158,19.206044 C11.8613897,18.5210588 12.7233672,17.992218 13.7434743,17.6195055 C14.7635815,17.246793 15.9162852,17.0604396 17.2016202,17.0604396 C17.752478,17.0604396 18.318629,17.0856225 18.90009,17.135989 C19.4815511,17.1863556 20.0579029,17.2518311 20.6291629,17.3324176 C21.2004229,17.4130041 21.746172,17.5086991 22.2664266,17.6195055 C22.7866813,17.7303119 23.250823,17.8461532 23.6588659,17.967033 L23.6588659,31.3241758 Z M43,25.3406593 C43,26.5897498 42.8163835,27.7330534 42.4491449,28.7706044 C42.0819064,29.8081554 41.5514586,30.6945934 40.8577858,31.4299451 C40.1641129,32.1652967 39.3327381,32.7344302 38.3636364,33.1373626 C37.3945346,33.5402951 36.3081368,33.7417582 35.1044104,33.7417582 C33.9210862,33.7417582 32.8448893,33.5402951 31.8757876,33.1373626 C30.9066858,32.7344302 30.075311,32.1652967 29.3816382,31.4299451 C28.6879653,30.6945934 28.1473167,29.8081554 27.759676,28.7706044 C27.3720353,27.7330534 27.1782178,26.5897498 27.1782178,25.3406593 C27.1782178,24.0915688 27.3771357,22.9533018 27.7749775,21.9258242 C28.1728193,20.8983465 28.7236688,20.0219816 29.4275428,19.2967033 C30.1314167,18.5714249 30.9678919,18.007328 31.9369937,17.6043956 C32.9060955,17.2014632 33.9618905,17 35.1044104,17 C36.2673325,17 37.3333285,17.2014632 38.3024302,17.6043956 C39.271532,18.007328 40.1029068,18.5714249 40.7965797,19.2967033 C41.4902525,20.0219816 42.0309012,20.8983465 42.4185419,21.9258242 C42.8061826,22.9533018 43,24.0915688 43,25.3406593 Z M38.3483348,25.3406593 C38.3483348,23.9505425 38.0678096,22.8576047 37.5067507,22.0618132 C36.9456918,21.2660217 36.1449197,20.8681319 35.1044104,20.8681319 C34.0639012,20.8681319 33.2580287,21.2660217 32.6867687,22.0618132 C32.1155087,22.8576047 31.829883,23.9505425 31.829883,25.3406593 C31.829883,26.7307762 32.1155087,27.8337871 32.6867687,28.6497253 C33.2580287,29.4656634 34.0639012,29.8736264 35.1044104,29.8736264 C36.1449197,29.8736264 36.9456918,29.4656634 37.5067507,28.6497253 C38.0678096,27.8337871 38.3483348,26.7307762 38.3483348,25.3406593 Z" id="go" fill="#FFFFFF"></path>
                </g>
            </g>
        </g>
    </g>
</svg>