<?xml version="1.0" encoding="UTF-8"?>
<svg width="250px" height="81px" viewBox="0 0 250 81" version="1.1" xmlns="http://www.w3.org/2000/svg" xmlns:xlink="http://www.w3.org/1999/xlink">
    <!-- Generator: sketchtool 52.2 (67145) - http://www.bohemiancoding.com/sketch -->
    <title>A28D1770-E19B-4870-913B-95BC7052AD23</title>
    <desc>Created with sketchtool.</desc>
    <g id="Page-1" stroke="none" stroke-width="1" fill="none" fill-rule="evenodd">
        <g id="LP_mob_dev" transform="translate(-407.000000, -5335.000000)">
            <g id="footer" transform="translate(-33.000000, 5036.000000)">
                <rect id="Rectangle" fill="#2D2D2D" fill-rule="nonzero" x="0" y="42" width="1953" height="577"></rect>
                <path d="M540.177832,320 C541.550555,320 542.808866,320.139872 543.952801,320.41962 C545.096737,320.699368 545.979189,320.970885 546.600183,321.234177 L545.178441,327.108861 C544.524763,326.812657 543.813899,326.590507 543.045828,326.442405 C542.277757,326.294303 541.566893,326.220253 540.913216,326.220253 C540.030751,326.220253 539.287204,326.34367 538.682552,326.590506 C538.0779,326.837343 537.603991,327.174681 537.26081,327.602532 C536.917629,328.030382 536.672504,328.540503 536.525426,329.132911 C536.378349,329.725319 536.304811,330.367085 536.304811,331.058228 L536.304811,332.341772 L545.325518,332.341772 L545.325518,338.463291 L536.304811,338.463291 L536.304811,358.308861 L529,358.308861 L529,330.959494 C529,327.602515 529.939648,324.936719 531.818971,322.962025 C533.698294,320.987332 536.484553,320 540.177832,320 Z M565.229903,338.858228 C564.576225,338.69367 563.808165,338.520887 562.9257,338.339873 C562.043236,338.15886 561.095417,338.068354 560.082217,338.068354 C559.624642,338.068354 559.077196,338.109493 558.43986,338.191772 C557.802524,338.274051 557.320444,338.364556 556.993605,338.463291 L556.993605,358.308861 L549.688794,358.308861 L549.688794,333.724051 C550.996149,333.263289 552.54044,332.827217 554.321711,332.415823 C556.102983,332.004428 558.088499,331.798734 560.278319,331.798734 C560.670526,331.798734 561.144435,331.823417 561.700061,331.872785 C562.255687,331.922152 562.811305,331.987974 563.366931,332.070253 C563.922557,332.152532 564.478174,332.251265 565.0338,332.366456 C565.589426,332.481646 566.063335,332.621518 566.455542,332.786076 L565.229903,338.858228 Z M577.6824,358.308861 L570.377588,358.308861 L570.377588,332.341772 L577.6824,332.341772 L577.6824,358.308861 Z M578.368758,324.837975 C578.368758,326.187349 577.935703,327.24873 577.06958,328.022152 C576.203457,328.795573 575.182101,329.182278 574.005481,329.182278 C572.828861,329.182278 571.807505,328.795573 570.941382,328.022152 C570.07526,327.24873 569.642205,326.187349 569.642205,324.837975 C569.642205,323.488601 570.07526,322.427219 570.941382,321.653797 C571.807505,320.880376 572.828861,320.493671 574.005481,320.493671 C575.182101,320.493671 576.203457,320.880376 577.06958,321.653797 C577.935703,322.427219 578.368758,323.488601 578.368758,324.837975 Z M583.320341,345.522785 C583.320341,343.218976 583.671688,341.203173 584.374391,339.475316 C585.077094,337.74746 586.0004,336.307601 587.144336,335.155696 C588.288272,334.003792 589.603779,333.131649 591.090895,332.539241 C592.578012,331.946832 594.10596,331.650633 595.674787,331.650633 C599.335382,331.650633 602.227862,332.777837 604.352314,335.032278 C606.476767,337.28672 607.538977,340.60251 607.538977,344.979747 C607.538977,345.407597 607.522635,345.87658 607.489951,346.386709 C607.457267,346.896838 607.424584,347.349365 607.3919,347.744304 L590.821255,347.744304 C590.984674,349.258235 591.687367,350.459489 592.929354,351.348101 C594.171342,352.236713 595.838195,352.681013 597.929963,352.681013 C599.270003,352.681013 600.585509,352.557596 601.876523,352.310759 C603.167536,352.063923 604.221575,351.759495 605.038672,351.397468 L606.019184,357.370886 C605.626977,357.568355 605.104043,357.765822 604.450365,357.963291 C603.796688,358.16076 603.069482,358.333544 602.268727,358.481646 C601.467972,358.629748 600.610033,358.753164 599.694884,358.851899 C598.779736,358.950633 597.864601,359 596.949452,359 C594.628896,359 592.610697,358.654434 590.894793,357.963291 C589.178889,357.272148 587.757162,356.325955 586.629568,355.124684 C585.501974,353.923412 584.668547,352.500008 584.129263,350.85443 C583.589979,349.208853 583.320341,347.431655 583.320341,345.522785 Z M600.479294,342.708861 C600.44661,342.083541 600.340389,341.474687 600.160627,340.882278 C599.980866,340.28987 599.703057,339.763293 599.327192,339.302532 C598.951328,338.84177 598.477419,338.463293 597.905451,338.167089 C597.333483,337.870885 596.622619,337.722785 595.772838,337.722785 C594.955741,337.722785 594.253048,337.862657 593.664738,338.142405 C593.076428,338.422153 592.586177,338.792403 592.193971,339.253165 C591.801764,339.713926 591.499443,340.248731 591.286998,340.857595 C591.074552,341.466459 590.919306,342.083541 590.821255,342.708861 L600.479294,342.708861 Z M613.176918,333.23038 C614.418906,332.868353 616.020392,332.531014 617.981425,332.218354 C619.942458,331.905695 622.001512,331.749367 624.158648,331.749367 C626.348468,331.749367 628.170567,332.037339 629.625,332.613291 C631.079433,333.189243 632.231522,334.003792 633.081303,335.056962 C633.931084,336.110132 634.535727,337.360752 634.89525,338.808861 C635.254772,340.256969 635.434531,341.869611 635.434531,343.646835 L635.434531,358.308861 L628.12972,358.308861 L628.12972,344.535443 C628.12972,342.165811 627.819228,340.487347 627.198234,339.5 C626.57724,338.512653 625.41698,338.018987 623.717418,338.018987 C623.194476,338.018987 622.638858,338.043671 622.050548,338.093038 C621.462238,338.142405 620.939304,338.2 620.48173,338.265823 L620.48173,358.308861 L613.176918,358.308861 L613.176918,333.23038 Z M648.279233,345.127848 C648.279233,347.398746 648.785825,349.22531 649.799026,350.607595 C650.812226,351.98988 652.315662,352.681013 654.309379,352.681013 C654.963056,352.681013 655.567699,352.656329 656.123325,352.606962 C656.678951,352.557595 657.136519,352.5 657.496041,352.434177 L657.496041,339.055696 C657.038467,338.759492 656.441995,338.512659 655.706608,338.31519 C654.97122,338.117721 654.227673,338.018987 653.475944,338.018987 C650.011452,338.018987 648.279233,340.388584 648.279233,345.127848 Z M664.800853,357.46962 C664.147175,357.66709 663.395457,357.856328 662.545676,358.037342 C661.695895,358.218355 660.805273,358.374683 659.873782,358.506329 C658.942291,358.637975 657.994473,358.744936 657.030298,358.827215 C656.066124,358.909494 655.142818,358.950633 654.260353,358.950633 C652.135901,358.950633 650.240264,358.637978 648.573386,358.012658 C646.906508,357.387339 645.501122,356.490512 644.357186,355.322152 C643.21325,354.153792 642.33897,352.738616 641.734318,351.076582 C641.129666,349.414549 640.827345,347.546846 640.827345,345.473418 C640.827345,343.367078 641.088812,341.466464 641.611754,339.771519 C642.134696,338.076574 642.886414,336.636715 643.866931,335.451899 C644.847447,334.267083 646.048562,333.362028 647.470311,332.736709 C648.892059,332.111389 650.518058,331.798734 652.348356,331.798734 C653.361556,331.798734 654.26852,331.897467 655.069275,332.094937 C655.87003,332.292406 656.678944,332.57215 657.496041,332.934177 L657.496041,321.18481 L664.800853,320 L664.800853,357.46962 Z M679.067296,353.026582 C680.407335,353.026582 681.355154,352.894938 681.91078,352.631646 C682.466406,352.368353 682.744214,351.858232 682.744214,351.101266 C682.744214,350.508858 682.384697,349.990509 681.665652,349.546203 C680.946606,349.101897 679.851713,348.600003 678.380938,348.040506 C677.237002,347.612656 676.199304,347.168357 675.267814,346.707595 C674.336323,346.246833 673.543751,345.695573 672.890073,345.053797 C672.236395,344.412022 671.729803,343.64684 671.37028,342.758228 C671.010757,341.869616 670.830999,340.800006 670.830999,339.549367 C670.830999,337.113912 671.729792,335.188615 673.527406,333.773418 C675.325019,332.358221 677.792615,331.650633 680.930268,331.650633 C682.499094,331.650633 684.00253,331.790505 685.440621,332.070253 C686.878712,332.350001 688.022631,332.654429 688.872412,332.983544 L687.597747,338.710127 C686.747966,338.413923 685.82466,338.150634 684.827801,337.920253 C683.830943,337.689872 682.711537,337.574684 681.469549,337.574684 C679.181678,337.574684 678.037759,338.216449 678.037759,339.5 C678.037759,339.796204 678.086784,340.059493 678.184836,340.289873 C678.282887,340.520254 678.478988,340.742404 678.773143,340.956329 C679.067297,341.170254 679.467669,341.400632 679.974269,341.647468 C680.480869,341.894305 681.126366,342.165821 681.91078,342.462025 C683.51229,343.054433 684.835967,343.638605 685.881851,344.214557 C686.927736,344.790509 687.752991,345.415819 688.357643,346.090506 C688.962295,346.765193 689.387179,347.51392 689.632308,348.336709 C689.877437,349.159498 690,350.113919 690,351.2 C690,353.767101 689.044011,355.708854 687.132004,357.025316 C685.219997,358.341779 682.515446,359 679.01827,359 C676.730399,359 674.826591,358.802534 673.30679,358.407595 C671.78699,358.012656 670.732951,357.683546 670.144641,357.420253 L671.37028,351.446835 C672.612268,351.940509 673.88692,352.327214 675.194275,352.606962 C676.501631,352.88671 677.792625,353.026582 679.067296,353.026582 Z" id="friends" fill="#FFFFFF"></path>
                <circle id="Oval" fill="#4A998C" cx="480.5" cy="339.5" r="40.5"></circle>
                <path d="M461.524752,338.857143 C461.524752,342.978043 463.191402,345.038462 466.524752,345.038462 C467.283832,345.038462 467.993396,344.939561 468.653465,344.741758 C469.313535,344.543955 469.874585,344.313188 470.336634,344.049451 L470.336634,332.28022 C469.973596,332.214285 469.544557,332.156594 469.049505,332.107143 C468.554453,332.057692 467.976901,332.032967 467.316832,332.032967 C465.369627,332.032967 463.917497,332.675818 462.960396,333.961538 C462.003296,335.247259 461.524752,336.879111 461.524752,338.857143 Z M477.712871,349.43956 C477.712871,353.692329 476.632024,356.848891 474.470297,358.909341 C472.30857,360.969791 468.967019,362 464.445545,362 C462.861378,362 461.277236,361.859892 459.693069,361.57967 C458.108903,361.299449 456.640271,360.928574 455.287129,360.467033 L456.574257,354.285714 C457.729379,354.747255 458.942238,355.109889 460.212871,355.373626 C461.483505,355.637364 462.927385,355.769231 464.544554,355.769231 C466.656776,355.769231 468.150161,355.307697 469.024752,354.384615 C469.899344,353.461534 470.336634,352.274733 470.336634,350.824176 L470.336634,349.884615 C469.54455,350.247255 468.727727,350.51923 467.886139,350.700549 C467.04455,350.881869 466.128718,350.972527 465.138614,350.972527 C461.541236,350.972527 458.785488,349.909351 456.871287,347.782967 C454.957086,345.656583 454,342.681338 454,338.857143 C454,336.945045 454.297027,335.206052 454.891089,333.64011 C455.485151,332.074168 456.351479,330.730775 457.490099,329.60989 C458.628719,328.489005 460.023094,327.623629 461.673267,327.013736 C463.323441,326.403843 465.188108,326.098901 467.267327,326.098901 C468.15842,326.098901 469.074253,326.140109 470.014851,326.222527 C470.95545,326.304945 471.887784,326.412087 472.811881,326.543956 C473.735978,326.675825 474.618808,326.832417 475.460396,327.013736 C476.301984,327.195056 477.052802,327.384614 477.712871,327.582418 L477.712871,349.43956 Z M509,339.648352 C509,341.692318 508.702973,343.563178 508.108911,345.260989 C507.514849,346.9588 506.656771,348.409335 505.534653,349.612637 C504.412536,350.81594 503.067665,351.747249 501.5,352.406593 C499.932335,353.065937 498.174927,353.395604 496.227723,353.395604 C494.313522,353.395604 492.572615,353.065937 491.00495,352.406593 C489.437286,351.747249 488.092415,350.81594 486.970297,349.612637 C485.848179,348.409335 484.9736,346.9588 484.346535,345.260989 C483.719469,343.563178 483.405941,341.692318 483.405941,339.648352 C483.405941,337.604385 483.72772,335.741767 484.371287,334.06044 C485.014855,332.379112 485.905935,330.945061 487.044554,329.758242 C488.183174,328.571423 489.536296,327.648355 491.10396,326.989011 C492.671625,326.329667 494.379529,326 496.227723,326 C498.10892,326 499.833325,326.329667 501.40099,326.989011 C502.968655,327.648355 504.313526,328.571423 505.435644,329.758242 C506.557761,330.945061 507.43234,332.379112 508.059406,334.06044 C508.686472,335.741767 509,337.604385 509,339.648352 Z M501.475248,339.648352 C501.475248,337.373615 501.021457,335.585171 500.113861,334.282967 C499.206266,332.980763 497.9109,332.32967 496.227723,332.32967 C494.544546,332.32967 493.240929,332.980763 492.316832,334.282967 C491.392735,335.585171 490.930693,337.373615 490.930693,339.648352 C490.930693,341.923088 491.392735,343.728015 492.316832,345.063187 C493.240929,346.398358 494.544546,347.065934 496.227723,347.065934 C497.9109,347.065934 499.206266,346.398358 500.113861,345.063187 C501.021457,343.728015 501.475248,341.923088 501.475248,339.648352 Z" id="go" fill="#FFFFFF"></path>
                <g id="logo2" transform="translate(440.000000, 299.000000)"></g>
            </g>
        </g>
    </g>
</svg>