<?xml version="1.0" encoding="UTF-8"?>
<svg width="74px" height="64px" viewBox="0 0 74 64" version="1.1" xmlns="http://www.w3.org/2000/svg" xmlns:xlink="http://www.w3.org/1999/xlink">
    <!-- Generator: sketchtool 52.2 (67145) - http://www.bohemiancoding.com/sketch -->
    <title>773C4229-F081-44AC-B7C1-F84A51ED8414</title>
    <desc>Created with sketchtool.</desc>
    <g id="Page-1" stroke="none" stroke-width="1" fill="none" fill-rule="evenodd">
        <g id="lp_webdev" transform="translate(-1066.000000, -4185.000000)" fill="#FFFFFF">
            <g id="Group-9" transform="translate(0.000000, 3742.000000)">
                <g id="psd_to_respons" transform="translate(1066.000000, 443.000000)">
                    <path d="M70.3,32 L69.0666667,32 L69.0666667,6.15384615 C69.0626583,2.75692308 66.304,0.004 62.9,0 L11.1,0 C7.696,0.004 4.93734167,2.75692308 4.93333333,6.15384615 L4.93333333,24.6153846 L3.7,24.6153846 C1.65652083,24.6153846 0,26.2684615 0,28.3076923 L0,60.3076923 C0,62.3469231 1.65652083,64 3.7,64 L50.5666667,64 C51.247775,64 51.8,63.4489231 51.8,62.7692308 C51.7959917,59.3723077 49.0373333,56.6193846 45.6333333,56.6153846 L41.9333333,56.6153846 L41.9333333,49.2307692 L56.7333333,49.2307692 L56.7333333,60.3076923 C56.7333333,62.3469231 58.3898542,64 60.4333333,64 L70.3,64 C72.3434792,64 74,62.3469231 74,60.3076923 L74,35.6923077 C74,33.6530769 72.3434792,32 70.3,32 Z M27.1333333,60.3076923 C27.1333333,60.9873846 26.5811083,61.5384615 25.9,61.5384615 L3.7,61.5384615 C3.01889167,61.5384615 2.46666667,60.9873846 2.46666667,60.3076923 L2.46666667,59.0769231 L27.1333333,59.0769231 L27.1333333,60.3076923 Z M27.1333333,56.6153846 L2.46666667,56.6153846 L2.46666667,28.3076923 C2.46666667,27.628 3.01889167,27.0769231 3.7,27.0769231 L25.9,27.0769231 C26.5811083,27.0769231 27.1333333,27.628 27.1333333,28.3076923 L27.1333333,56.6153846 Z M45.6333333,59.0769231 C47.2009,59.0787692 48.5978042,60.0643077 49.1224333,61.5384615 L29.3730667,61.5384615 C29.5192167,61.1443077 29.5958375,60.728 29.6,60.3076923 L29.6,59.0769231 L45.6333333,59.0769231 Z M29.6,56.6153846 L29.6,49.2307692 L32.0666667,49.2307692 L32.0666667,56.6153846 L29.6,56.6153846 Z M34.5333333,56.6153846 L34.5333333,49.2307692 L39.4666667,49.2307692 L39.4666667,56.6153846 L34.5333333,56.6153846 Z M56.7333333,46.7692308 L29.6,46.7692308 L29.6,39.3846154 L56.7333333,39.3846154 L56.7333333,46.7692308 Z M56.7333333,35.6923077 L56.7333333,36.9230769 L29.6,36.9230769 L29.6,28.3076923 C29.5958375,27.7236923 29.451075,27.1492308 29.1782,26.6326154 C29.1967,26.6153846 29.2213667,26.6104615 29.2386333,26.592 L41.4486333,14.4073846 C41.921925,13.9184615 41.9083583,13.1392308 41.4184167,12.6670769 C40.9405,12.2064615 40.1827708,12.2064615 39.7047,12.6670769 L27.4947,24.8516923 C27.4651,24.8824615 27.4527667,24.9218462 27.4268667,24.9538462 C26.9483333,24.7323077 26.4274042,24.6169231 25.9,24.6153846 L7.4,24.6153846 L7.4,6.15384615 C7.4,4.11461538 9.05652083,2.46153846 11.1,2.46153846 L62.9,2.46153846 C64.9434792,2.46153846 66.6,4.11461538 66.6,6.15384615 L66.6,32 L60.4333333,32 C58.3898542,32 56.7333333,33.6530769 56.7333333,35.6923077 Z M71.5333333,60.3076923 C71.5333333,60.9873846 70.9811083,61.5384615 70.3,61.5384615 L60.4333333,61.5384615 C59.752225,61.5384615 59.2,60.9873846 59.2,60.3076923 L59.2,59.0769231 L71.5333333,59.0769231 L71.5333333,60.3076923 Z M71.5333333,56.6153846 L59.2,56.6153846 L59.2,35.6923077 C59.2,35.0126154 59.752225,34.4615385 60.4333333,34.4615385 L70.3,34.4615385 C70.9811083,34.4615385 71.5333333,35.0126154 71.5333333,35.6923077 L71.5333333,56.6153846 Z" id="Shape" fill-rule="nonzero"></path>
                    <path d="M14.9402241,39.3277023 C14.4855971,38.8907659 13.7486472,38.8907659 13.2940201,39.3277023 L8.35540807,44.0756599 C7.89292254,44.505181 7.88011614,45.2136811 8.32688474,45.6583124 C8.77365333,46.1029438 9.51060322,46.1152558 9.97308875,45.6857346 C9.98283908,45.6767804 9.99229835,45.6675464 10.0016121,45.6583124 L14.9402241,40.9103548 C15.148037,40.5640796 14.7303739,39.9058069 14.9402241,39.3277023 Z" id="Path"></path>
                    <path d="M21.6577064,39.3147747 C21.2231505,38.8950751 20.5341691,38.8950751 20.099473,39.3147747 L15.3423474,44.0719315 C14.8968575,44.5021446 14.8845217,45.2121576 15.3148722,45.6576504 C15.7450826,46.1031432 16.4550909,46.1154791 16.9005808,45.6851257 C16.9099728,45.6761542 16.9190844,45.6669023 16.9280559,45.6576504 L21.6851815,40.9004936 C22.1153919,40.4550008 22.1031963,39.7449879 21.6577064,39.3147747 Z" id="Path"></path>
                    <path d="M48.6408535,13.3302211 C48.1849738,12.8899263 47.4621839,12.8899263 47.0061572,13.3302211 L35.3591661,24.9772991 C34.8918159,25.4286233 34.8788748,26.1734775 35.3301957,26.6408312 C35.7815166,27.1081849 36.5263652,27.1211261 36.9937154,26.6698018 C37.0035683,26.6603901 37.0131271,26.6506842 37.0226859,26.6408312 L48.6696769,14.9937533 C49.1211449,14.5263996 49.1082038,13.7815454 48.6408535,13.3302211 Z" id="Path"></path>
                    <path d="M67.6838515,43.2907808 C67.282551,42.9030731 66.6461661,42.9030731 66.2448655,43.2907808 L63.3161485,46.2194948 C62.9047507,46.6169114 62.8933589,47.2724545 63.2907759,47.6838519 C63.6881929,48.0952492 64.3437367,48.106641 64.7551345,47.7092244 C64.7636783,47.7009395 64.7722221,47.6923957 64.780507,47.6838519 L67.7092241,44.7551378 C68.1066411,44.3437405 68.0952493,43.6881973 67.6838515,43.2907808 Z" id="Path"></path>
                    <path d="M37.5037501,42 L37.4887876,42 C36.6624836,42.004125 35.9959043,42.6791207 36.0000189,43.5074905 C36.0041336,44.3358602 36.6774461,45.004106 37.5037501,44.999981 C38.3300541,44.999981 39,44.3283603 39,43.4999905 C39,42.6716207 38.3300541,42 37.5037501,42 Z" id="Path"></path>
                    <path d="M39.8333333,5 L35.1666667,5 C34.522375,5 34,5.671625 34,6.5 C34,7.328375 34.522375,8 35.1666667,8 L39.8333333,8 C40.477625,8 41,7.328375 41,6.5 C41,5.671625 40.477625,5 39.8333333,5 Z" id="Path"></path>
                </g>
            </g>
        </g>
    </g>
</svg>