<?xml version="1.0" encoding="UTF-8"?>
<svg width="65px" height="65px" viewBox="0 0 65 65" version="1.1" xmlns="http://www.w3.org/2000/svg" xmlns:xlink="http://www.w3.org/1999/xlink">
    <!-- Generator: sketchtool 52.2 (67145) - http://www.bohemiancoding.com/sketch -->
    <title>54F74884-8387-44B0-B5F7-EAD09D00C720</title>
    <desc>Created with sketchtool.</desc>
    <g id="Page-1" stroke="none" stroke-width="1" fill="none" fill-rule="evenodd">
        <g id="lp_webdev" transform="translate(-1066.000000, -3890.000000)" fill="#FFFFFF">
            <g id="Group-9" transform="translate(0.000000, 3742.000000)">
                <g id="psd_to_html" transform="translate(1066.000000, 148.000000)">
                    <path d="M64.9979097,13.9281464 C64.9974071,13.9137649 64.9969046,13.8988877 64.9958994,13.8840103 C64.9923814,13.8309478 64.9863504,13.7783813 64.9757962,13.7273025 C64.9757962,13.7253189 64.9752937,13.7233352 64.9747912,13.7218476 C64.9637344,13.6658096 64.9476519,13.6117554 64.9295591,13.558197 C64.926041,13.5482788 64.9220204,13.5383606 64.9185024,13.5284424 C64.8994044,13.4788513 64.8782962,13.430252 64.8536698,13.3836365 C64.8521621,13.3801651 64.8506544,13.3766938 64.848644,13.3727265 C64.8220074,13.3236313 64.7913502,13.2770157 64.7586826,13.2318878 C64.751144,13.2214737 64.7431027,13.2110596 64.7350615,13.2011414 C64.7008861,13.1565093 64.6647004,13.1138611 64.6249969,13.0746841 C64.6239916,13.0736924 64.6239916,13.0731963 64.6234891,13.0727005 L51.751964,0.371933047 C51.7514615,0.371437041 51.7504562,0.370941162 51.7499537,0.370445283 C51.71025,0.331268311 51.6670284,0.295562744 51.6222989,0.26184082 C51.6117448,0.25390625 51.6011906,0.24597168 51.590134,0.238532988 C51.5443993,0.206298828 51.4971569,0.176048311 51.4479043,0.149765078 C51.4438837,0.147781309 51.4398631,0.146293672 51.4358425,0.144310029 C51.3891028,0.120506318 51.33985,0.0996780078 51.2900949,0.0808334668 C51.2800432,0.0773620605 51.2694891,0.0733947754 51.2594376,0.0699233691 C51.2056618,0.051574707 51.1503782,0.0362014453 51.0940894,0.0247954687 C51.0920791,0.0247954687 51.0905714,0.0242995898 51.088561,0.0242995898 C51.0367956,0.014381377 50.9835223,0.00843047461 50.9292439,0.00446318945 C50.9146691,0.00347138086 50.8995917,0.00297546387 50.885017,0.00247954687 C50.8704423,0.00148773828 50.8563701,0 50.8417952,0 L14.8024297,0 C14.0912819,0 13.5148249,0.568809541 13.5148249,1.27002713 L13.5148249,7.76050564 L3.9552889,7.76050564 C1.77460294,7.76050564 0,9.51107028 0,11.6633225 L0,26.7186738 C0,28.8709258 1.77460294,30.6214905 3.9552889,30.6214905 L13.5148249,30.6214905 L13.5148249,63.7299729 C13.5148249,64.4311905 14.0912819,65 14.8019272,65 L63.7128178,65 C64.4239657,65 64.99992,64.4311905 64.99992,63.7299729 L64.99992,13.9707947 C65.0004227,13.9564133 64.9984122,13.9425278 64.9979097,13.9281464 Z M52.1288976,4.33624268 L60.605378,12.7007675 L52.1288976,12.7007675 L52.1288976,4.33624268 Z M16.089532,62.4599457 L16.089532,30.6214905 L24.260445,30.6214905 C24.9715929,30.6214905 25.5475473,30.0526809 25.5475473,29.3514633 C25.5475473,28.6502456 24.9715929,28.0814361 24.260445,28.0814361 L14.9783321,28.0814361 C14.9205356,28.0735015 14.8622365,28.0680466 14.8019272,28.0680466 C14.7421203,28.0680466 14.6838213,28.0735015 14.6260249,28.0814361 L3.9552889,28.0814361 C3.1938832,28.0814361 2.57420443,27.4699783 2.57420443,26.7186738 L2.57420443,11.6633225 C2.57420443,10.9120178 3.1938832,10.30056 3.9552889,10.30056 L39.6785329,10.30056 C40.4399385,10.30056 41.0596171,10.9120178 41.0596171,11.6633225 L41.0596171,26.7186738 C41.0596171,27.4704742 40.4399385,28.0814361 39.6785329,28.0814361 L34.5577656,28.0814361 C33.8471204,28.0814361 33.2706634,28.6502456 33.2706634,29.3514633 C33.2706634,30.0526809 33.8471204,30.6214905 34.5577656,30.6214905 L39.6785329,30.6214905 C41.8592187,30.6214905 43.6338217,28.8709258 43.6338217,26.7186738 L43.6338217,11.6633225 C43.6338217,9.51156616 41.8597213,7.76050564 39.6785329,7.76050564 L16.089532,7.76050564 L16.089532,2.54005426 L49.554693,2.54005426 L49.554693,13.9707947 C49.554693,14.6720123 50.13115,15.2408218 50.8417952,15.2408218 L62.4262181,15.2408218 L62.4262181,62.4599457 L16.089532,62.4599457 Z" id="Shape" fill-rule="nonzero"></path>
                    <path d="M29.1960171,29.9812472 C29.2588833,29.9683546 29.3221398,29.9492112 29.382663,29.9242075 C29.4427957,29.8992038 29.5009761,29.8683398 29.5548614,29.8320064 C29.609918,29.7960636 29.6610699,29.7542606 29.7071456,29.70816 C29.8930106,29.5210229 30,29.2639537 30,28.9998522 C30,28.9346082 29.9941429,28.8685828 29.9812573,28.8045108 C29.9679813,28.7404389 29.9492386,28.6775389 29.9242484,28.6177644 C29.8992581,28.5575993 29.8680204,28.4993875 29.8320968,28.4443013 C29.795002,28.3903871 29.7532214,28.3384264 29.7071456,28.2923257 C29.6610699,28.2462251 29.609918,28.2044221 29.5552518,28.1684793 C29.5009761,28.1321459 29.4431863,28.1012819 29.3830535,28.0762782 C29.3221398,28.0512745 29.2588833,28.0321311 29.1960171,28.0192385 C28.8707536,27.9532131 28.524795,28.0602602 28.2928543,28.2923257 C28.2471691,28.3384264 28.204998,28.3903871 28.1690746,28.4443013 C28.1331511,28.4993875 28.1019133,28.5575993 28.0769231,28.6177644 C28.0519328,28.6775389 28.0331901,28.7404389 28.019914,28.8045108 C28.0070285,28.8685828 28,28.9346082 28,28.9998522 C28,29.0658776 28.0070285,29.1307308 28.019914,29.1959749 C28.0331901,29.2600468 28.0519328,29.3229468 28.0769231,29.3827213 C28.1019133,29.4428864 28.1331511,29.5010982 28.1690746,29.5561844 C28.204998,29.6100986 28.2471691,29.6620594 28.2928543,29.70816 C28.33893,29.7542606 28.3900819,29.7960636 28.4451385,29.8320064 C28.4990238,29.8683398 28.5572042,29.8992038 28.6181179,29.9242075 C28.6778602,29.9492112 28.7411167,29.9683546 28.8051542,29.9812472 C28.8691917,29.9941397 28.9351815,30 29,30 C29.0648184,30 29.1308083,29.9941397 29.1960171,29.9812472 Z" id="Path"></path>
                    <path d="M30,39 C30,39.5525186 30.5700087,40 31.2727047,40 L56.7272953,40 C57.4304882,40 58,39.5525186 58,39 C58,38.447872 57.4304882,38 56.7272953,38 L31.2727047,38 C30.5700087,38 30,38.447872 30,39 Z" id="Path"></path>
                    <path d="M25.5237134,46 C25.8801521,46 26.2360475,45.8652449 26.5077232,45.5968081 C27.0510749,45.0599347 27.0510749,44.1896629 26.5077232,43.6522524 L23.3595435,40.5416077 L26.5924862,37.3472107 C27.1358379,36.8103372 27.1358379,35.9395285 26.5924862,35.4026551 C26.0491345,34.8657816 25.1683613,34.8657816 24.6244663,35.4026551 L20.4075138,39.5693299 C19.8641621,40.1062033 19.8641621,40.9770121 20.4075138,41.5138856 L24.5397034,45.5968081 C24.8119226,45.8657817 25.167818,46 25.5237134,46 Z" id="Path"></path>
                    <path d="M53.4601532,48.4026747 C52.9168331,47.8657751 52.0361113,47.8657751 51.492248,48.4026747 C50.9489279,48.9395744 50.9489279,49.8104257 51.492248,50.3473253 L54.6402446,53.4581218 L51.4074901,56.6526748 C50.86417,57.1895744 50.86417,58.0604257 51.4074901,58.5973253 C51.6796934,58.865775 52.0355681,59 52.3914427,59 C52.7478607,59 53.1037353,58.865775 53.3753954,58.5973253 L57.5921025,54.4304471 C58.1359658,53.8935474 58.1359658,53.0226963 57.5921025,52.4857966 L53.4601532,48.4026747 Z" id="Path"></path>
                    <path d="M48.6875321,43 L30.3124679,43 C29.5878176,43 29,43.4474815 29,44 C29,44.5521281 29.5878176,45 30.3124679,45 L48.6875321,45 C49.4121825,45 50,44.5521281 50,44 C50,43.4474815 49.4121825,43 48.6875321,43 Z" id="Path"></path>
                    <path d="M48.6875321,49 L30.3124679,49 C29.5878176,49 29,49.4478719 29,50 C29,50.5521281 29.5878176,51 30.3124679,51 L48.6875321,51 C49.4121825,51 50,50.5521281 50,50 C50,49.4478719 49.4121825,49 48.6875321,49 Z" id="Path"></path>
                    <path d="M47.7272953,54 L22.2727048,54 C21.5700087,54 21,54.4478719 21,55 C21,55.5521281 21.5700087,56 22.2727048,56 L47.7272953,56 C48.4299914,56 49,55.5521281 49,55 C49,54.4478719 48.4299914,54 47.7272953,54 Z" id="Path"></path>
                    <path d="M25.3331815,16.4502977 L25.6730006,16.8310065 C25.891651,17.0756752 26.188651,17.213238 26.4984057,17.2137456 L26.4997723,17.2137456 C26.8090714,17.2137456 27.1060714,17.0766905 27.3247218,16.8330369 L27.666363,16.4523283 L27.666363,23.7000067 C27.666363,24.4182772 28.1888462,25 28.8334093,25 C29.4775168,25 30,24.4182772 30,23.7000067 L30,13.3137657 C30,12.7878801 29.715299,12.3137708 29.2798204,12.1127566 C28.8438863,11.9117424 28.3419015,12.0224018 28.0084598,12.3944811 L26.5020499,14.0726451 L24.9938179,12.3833137 C24.6603761,12.0097115 24.1583913,11.8975293 23.7220017,12.0985435 C23.2851564,12.2990501 23,12.773667 23,13.3000602 L23,23.7000067 C23,24.4182772 23.5224833,25 24.1665907,25 C24.8111538,25 25.3331815,24.4182772 25.3331815,23.7000067 L25.3331815,16.4502977 Z" id="Path"></path>
                    <path d="M11.8334092,12 C11.1893017,12 10.6668185,12.5822108 10.6668185,13.2999492 L10.6668185,17.1997969 L8.33363703,17.1997969 L8.33363703,13.2999492 C8.33363703,12.5822108 7.81115376,12 7.16704632,12 C6.52248327,12 6,12.5822108 6,13.2999492 L6,23.7000507 C6,24.4177892 6.52248327,25 7.16704632,25 C7.81115376,25 8.33363703,24.4177892 8.33363703,23.7000507 L8.33363703,19.8002029 L10.6668185,19.8002029 L10.6668185,23.7000507 C10.6668185,24.4177892 11.1893017,25 11.8334092,25 C12.4775167,25 13,24.4177892 13,23.7000507 L13,13.2999492 C13,12.5822108 12.4775167,12 11.8334092,12 Z" id="Path"></path>
                    <path d="M19.8333334,12 L15.1666666,12 C14.5225173,12 14,12.5822108 14,13.2999492 C14,14.0176876 14.5225173,14.5998984 15.1666666,14.5998984 L16.3333334,14.5998984 L16.3333334,23.7000507 C16.3333334,24.4177892 16.8558506,25 17.5000001,25 C18.1441494,25 18.6666667,24.4177892 18.6666667,23.7000507 L18.6666667,14.5998984 L19.8333334,14.5998984 C20.4774828,14.5998984 21,14.0176876 21,13.2999492 C21,12.5822108 20.4774828,12 19.8333334,12 Z" id="Path"></path>
                    <path d="M34.25,25 L36.75,25 C37.4401601,25 38,24.4177893 38,23.7000508 C38,22.9818047 37.4401601,22.4001016 36.75,22.4001016 L35.5000001,22.4001016 L35.5000001,13.2999492 C35.5000001,12.5822107 34.9401601,12 34.25,12 C33.5598399,12 33,12.5822107 33,13.2999492 L33,23.7000508 C33,24.4177893 33.5593519,25 34.25,25 Z" id="Path"></path>
                </g>
            </g>
        </g>
    </g>
</svg>