<?xml version="1.0" encoding="UTF-8"?>
<svg width="42px" height="69px" viewBox="0 0 42 69" version="1.1" xmlns="http://www.w3.org/2000/svg" xmlns:xlink="http://www.w3.org/1999/xlink">
    <!-- Generator: Sketch 52.2 (67145) - http://www.bohemiancoding.com/sketch -->
    <title>Ux optimiz</title>
    <desc>Created with Sketch.</desc>
    <g id="Page-1" stroke="none" stroke-width="1" fill="none" fill-rule="evenodd">
        <g id="lp_webdev" transform="translate(-1082.000000, -2837.000000)" fill="#313131">
            <g id="Group-7" transform="translate(407.000000, 2410.000000)">
                <g id="Ux-optimiz" transform="translate(675.000000, 427.000000)">
                    <path d="M40.6001272,0 L1.39987279,0 C0.626588901,0 0,0.605392523 0,1.35134128 L0,67.6486587 C0,68.3946075 0.626588901,69 1.39987279,69 L40.6001272,69 C41.3734111,69 42,68.3946075 42,67.6486587 L42,1.35134128 C42,0.605392523 41.3734111,3.83026943e-15 40.6001272,3.83026943e-15 Z M14.3330174,35.0996018 L5.26683713,35.0996018 L9.8002,31.4530334 L14.3330174,35.0996018 Z M11.9869899,29.6937104 L16.8001091,25.8218308 L16.8001091,33.5655899 L11.9869899,29.6937104 Z M2.79974558,33.5655899 L2.79974558,25.8218308 L7.6128647,29.6937104 L2.79974558,33.5655899 Z M5.28483326,37.8022842 L14.3150213,37.8022842 L9.8002,41.412529 L5.28483326,37.8022842 Z M7.60522995,43.1676407 L2.80029088,47.0100403 L2.80029088,39.3252412 L7.60522995,43.1676407 Z M16.8001091,39.3252412 L16.8001091,47.0100403 L11.9946246,43.1676407 L16.8001091,39.3252412 Z M9.8002,27.9343872 L5.26683713,24.2878189 L14.3330174,24.2878189 L9.8002,27.9343872 Z M9.8002,44.922226 L14.3150213,48.5324707 L5.28483326,48.5324707 L9.8002,44.922226 Z M19.5998546,48.5324707 L19.5998546,36.458313 C19.5998546,36.458313 19.5998546,36.458313 19.5998546,36.4577866 L19.5998546,36.4483108 C19.5998546,36.4483108 19.5998546,36.4477844 19.5998546,36.447258 L19.5998546,24.2878189 L27.2732514,24.2878189 C28.0465353,24.2878189 28.6731242,23.6824265 28.6731242,22.9359512 C28.6731242,22.1900024 28.0465353,21.5846099 27.2732514,21.5846099 L18.1939832,21.5846099 C18.1934378,21.5846099 18.1923472,21.5846099 18.1918019,21.5846099 L2.79974558,21.5846099 L2.79974558,10.7728271 L39.2002546,10.7728271 L39.2002546,21.5846099 L38.4733242,21.5846099 C37.7000403,21.5846099 37.0734514,22.1900024 37.0734514,22.9359512 C37.0734514,23.6824265 37.7000403,24.2878189 38.4733242,24.2878189 L39.2002546,24.2878189 L39.2002546,48.5324707 L19.5998546,48.5324707 Z M2.79974558,2.70268256 L39.2002546,2.70268256 L39.2002546,8.07014459 L2.79974558,8.07014459 L2.79974558,2.70268256 Z M2.79974558,66.2973174 L2.79974558,51.2356797 L39.2002546,51.2356797 L39.2002546,66.296791 L2.79974558,66.296791 L2.79974558,66.2973174 Z" id="Shape" fill-rule="nonzero"></path>
                    <path d="M8.88605372,4.92574019 C8.84865599,4.83453808 8.80190881,4.74742855 8.74814956,4.66616523 C8.69263725,4.58373273 8.63128162,4.50714643 8.56232962,4.43816041 C8.21231011,4.08972215 7.69516953,3.93070335 7.20724586,4.02833625 C7.11141415,4.04762894 7.0167512,4.07627567 6.92676281,4.11369186 C6.83677442,4.15169264 6.74853924,4.19787828 6.66731599,4.25224879 C6.58492413,4.30603442 6.5083756,4.36917438 6.43942344,4.43816041 C6.37047143,4.50714643 6.30736275,4.58373273 6.2536035,4.66616523 C6.19925994,4.74742855 6.15309707,4.83453808 6.11511503,4.92574019 C6.07771729,5.01577282 6.04908468,5.11048247 6.02980136,5.20636161 C6.01051819,5.30282518 6,5.40162726 6,5.49926017 C6,5.59689292 6.01051819,5.69569516 6.02980136,5.79332792 C6.04908468,5.88803772 6.07771729,5.98274752 6.11511503,6.07394933 C6.15309707,6.16398211 6.19925994,6.25109164 6.2536035,6.33235496 C6.30736275,6.41478746 6.37047143,6.49137376 6.43942344,6.56035978 C6.5083756,6.62934596 6.58492413,6.69248577 6.66731599,6.74802547 C6.74853924,6.80181124 6.83677442,6.84858147 6.92676281,6.88599766 C7.0167512,6.92341385 7.11141415,6.95206058 7.20724586,6.97135327 C7.30366187,6.99123069 7.40241524,7 7.5,7 C7.59875337,7 7.69633813,6.99123069 7.7939229,6.97135327 C7.88975461,6.95206058 7.98441771,6.92341385 8.07440594,6.88599766 C8.16439418,6.84858147 8.25146091,6.80181124 8.33385276,6.74802547 C8.41507602,6.69248577 8.4916244,6.62934596 8.56232962,6.56035978 C8.63128162,6.49137376 8.69263725,6.41478746 8.74814956,6.33235496 C8.80190881,6.25109164 8.84865599,6.16398211 8.88605372,6.07394933 C8.92345146,5.98274752 8.95208422,5.88803772 8.97136739,5.79332792 C8.99123487,5.69569516 9,5.59689292 9,5.49926017 C9,5.40162726 8.99123487,5.30224044 8.97136739,5.20636161 C8.95208422,5.11048247 8.92345146,5.01577282 8.88605372,4.92574019 Z" id="Path"></path>
                    <path d="M34.6112313,4 L12.3887687,4 C11.6216188,4 11,4.6718597 11,5.49970791 C11,6.32814015 11.6216188,7 12.3887687,7 L34.6112313,7 C35.3783813,7 36,6.32814015 36,5.49970791 C36,4.6718597 35.3783813,4 34.6112313,4 Z" id="Path"></path>
                    <path d="M16.8843232,15.9255941 C16.8469327,15.8350214 16.8007789,15.7479548 16.7464459,15.6673159 C16.6926971,15.584924 16.6296007,15.5083755 16.5606621,15.4388392 C16.4917234,15.369887 16.4151899,15.3073626 16.332814,15.2518505 C16.2516067,15.1975067 16.1645569,15.1525126 16.0728335,15.1151149 C15.9828626,15.0777171 15.8888023,15.0473315 15.792405,15.0280483 C15.5990262,14.9906506 15.4009738,14.9906506 15.207595,15.0280483 C15.1117819,15.0473315 15.0171372,15.0777171 14.9271665,15.1151149 C14.8354431,15.1525126 14.7489775,15.1975067 14.6677702,15.2518505 C14.5853943,15.3073626 14.5088608,15.369887 14.4399221,15.4388392 C14.3709835,15.5083755 14.3078871,15.584924 14.253554,15.6673159 C14.1998053,15.7479548 14.1530673,15.8350214 14.1156768,15.9255941 C14.0782863,16.0167511 14.0496592,16.1114141 14.0303797,16.2060772 C14.010516,16.3030775 14,16.4024153 14,16.5000001 C14,16.8944293 14.1606622,17.2812622 14.4399221,17.5605765 C14.5088608,17.6295287 14.5853943,17.6920531 14.6677702,17.7463966 C14.7489775,17.8001559 14.8354431,17.8469031 14.9271665,17.8843008 C15.0171372,17.9216986 15.1117819,17.9503312 15.207595,17.9696143 C15.303408,17.989482 15.4027263,18 15.5002921,18 C15.5978579,18 15.696592,17.989482 15.792405,17.9696143 C15.8888023,17.9503312 15.9828626,17.9216986 16.0728335,17.8843008 C16.1645569,17.8469031 16.2516067,17.8001559 16.332814,17.7463966 C16.4151899,17.6920531 16.4917234,17.6295287 16.5606621,17.5605765 C16.8393378,17.2812622 17,16.8944293 17,16.5000001 C17,16.4024153 16.9912366,16.3030775 16.971373,16.2060772 C16.9520934,16.1114141 16.9217137,16.0167511 16.8843232,15.9255941 Z" id="Path"></path>
                    <path d="M21.8843233,15.9255941 C21.8469329,15.8350214 21.8001948,15.7479548 21.7464459,15.6673159 C21.6926973,15.584924 21.6296007,15.5083755 21.5606621,15.4388392 C21.4917235,15.369887 21.4151899,15.3073626 21.3328141,15.2518505 C21.2516067,15.1975067 21.164557,15.1525126 21.0745862,15.1151149 C20.9828628,15.0777171 20.8888024,15.0473315 20.792405,15.0280483 C20.5990264,14.9906506 20.4009738,14.9906506 20.207595,15.0280483 C20.1117819,15.0473315 20.0171372,15.0777171 19.9254138,15.1151149 C19.8354431,15.1525126 19.7483935,15.1975067 19.6677702,15.2518505 C19.5853944,15.3073626 19.5088608,15.369887 19.4399222,15.4388392 C19.3709835,15.5083755 19.3078871,15.584924 19.2535541,15.6673159 C19.1998053,15.7479548 19.1530673,15.8350214 19.1156768,15.9255941 C19.0782863,16.0167511 19.0484908,16.1114141 19.0303797,16.2060772 C19.0105161,16.3030775 19,16.4024153 19,16.5000001 C19,16.8944293 19.1606622,17.2812622 19.4399222,17.5605765 C19.5088608,17.6295287 19.5853944,17.6920531 19.6677702,17.7463966 C19.7483935,17.8001559 19.8354431,17.8469031 19.9254138,17.8843008 C20.0171372,17.9216986 20.1117819,17.9503312 20.207595,17.9696143 C20.303408,17.989482 20.4027265,18 20.5002921,18 C20.5978579,18 20.696592,17.989482 20.792405,17.9696143 C20.8888024,17.9503312 20.9828628,17.9216986 21.0728335,17.8843008 C21.164557,17.8469031 21.2516067,17.8001559 21.3328141,17.7463966 C21.4151899,17.6920531 21.4917235,17.6295287 21.5606621,17.5605765 C21.8393378,17.2812622 22,16.8944293 22,16.5000001 C22,16.4024153 21.9894839,16.3030775 21.9702044,16.2060772 C21.9520934,16.1114141 21.9217138,16.0167511 21.8843233,15.9255941 Z" id="Path"></path>
                    <path d="M27.8843233,15.9255941 C27.8469329,15.8350214 27.8001948,15.7479548 27.746446,15.6673159 C27.6926973,15.584924 27.6296009,15.5083755 27.5606621,15.4388392 C27.4917235,15.369887 27.4151899,15.3073626 27.3322298,15.2518505 C27.2516067,15.1975067 27.164557,15.1525126 27.0728336,15.1151149 C26.9828628,15.0777171 26.8888024,15.0473315 26.7924052,15.0280483 C26.5990264,14.9906506 26.4009738,14.9906506 26.207595,15.0280483 C26.1117819,15.0473315 26.0171374,15.0777171 25.9271665,15.1151149 C25.8354431,15.1525126 25.7483935,15.1975067 25.6677702,15.2518505 C25.5853944,15.3073626 25.5088608,15.369887 25.4399222,15.4388392 C25.3709835,15.5083755 25.3078871,15.584924 25.2535541,15.6673159 C25.1980526,15.7479548 25.1530673,15.8350214 25.1156768,15.9255941 C25.0782863,16.0167511 25.0484908,16.1114141 25.0303799,16.2060772 C25.0105161,16.3030775 25,16.4024153 25,16.5000001 C25,16.8944293 25.1606622,17.2812622 25.4399222,17.5605765 C25.5088608,17.6295287 25.5853944,17.6920531 25.6677702,17.7463966 C25.7483935,17.8001559 25.8354431,17.8469031 25.9271665,17.8843008 C26.0171374,17.9216986 26.1117819,17.9503312 26.207595,17.9696143 C26.303408,17.989482 26.4027265,18 26.5002921,18 C26.5978579,18 26.696592,17.989482 26.7924052,17.9696143 C26.8888024,17.9503312 26.9828628,17.9216986 27.0728336,17.8843008 C27.164557,17.8469031 27.2516067,17.8001559 27.3322298,17.7463966 C27.4151899,17.6920531 27.4917235,17.6295287 27.5606621,17.5605765 C27.839338,17.2812622 28,16.8944293 28,16.5000001 C28,16.4024153 27.989484,16.3030775 27.9702046,16.2060772 C27.9520936,16.1114141 27.9217138,16.0167511 27.8843233,15.9255941 Z" id="Path"></path>
                    <path d="M11.4999999,54 C8.46747494,54 6,56.4674748 6,59.5 C6,62.5330606 8.46747494,65 11.4999999,65 C14.5325251,65 17,62.5330606 17,59.5 C17,56.4674748 14.5325251,54 11.4999999,54 Z M11.4999999,62.2502677 C9.98373751,62.2502677 8.74973226,61.0162624 8.74973226,59.5 C8.74973226,57.9837374 9.98373751,56.7502677 11.4999999,56.7502677 C13.0162625,56.7502677 14.2497322,57.9837374 14.2497322,59.5 C14.2497322,61.0162624 13.0162625,62.2502677 11.4999999,62.2502677 Z" id="Shape" fill-rule="nonzero"></path>
                    <path d="M32.6001636,55 L21.4003817,55 C20.627118,55 20,55.6718599 20,56.5002921 C20,57.3281403 20.627118,58 21.4003817,58 L32.6001636,58 C33.3734272,58 34,57.3281403 34,56.5002921 C34,55.6718599 33.3734272,55 32.6001636,55 Z" id="Path"></path>
                    <path d="M32.6001636,60 L21.4003817,60 C20.627118,60 20,60.6718599 20,61.5002921 C20,62.3281403 20.627118,63 21.4003817,63 L32.6001636,63 C33.3734272,63 34,62.3281403 34,61.5002921 C34,60.6718599 33.3734272,60 32.6001636,60 Z" id="Path"></path>
                    <path d="M31.7997818,38 L26.1996728,38 C23.8841538,38 22,39.7943392 22,42.0000001 C22,44.205661 23.8841538,46 26.1996728,46 L31.7997818,46 C34.115846,46 36,44.205661 36,42.0000001 C36,39.7943392 34.115846,38 31.7997818,38 Z M31.7997818,43.3331603 L26.1996728,43.3331603 C25.4280149,43.3331603 24.7997818,42.7353935 24.7997818,42.0000001 C24.7997818,41.265126 25.4280149,40.6668398 26.1996728,40.6668398 L31.7997818,40.6668398 C32.571985,40.6668398 33.2002181,41.265126 33.2002181,42.0000001 C33.2002181,42.7353935 32.571985,43.3331603 31.7997818,43.3331603 Z" id="Shape" fill-rule="nonzero"></path>
                    <path d="M34.600109,27 L23.399891,27 C22.626597,27 22,27.6718597 22,28.5002921 C22,29.3281401 22.626597,30 23.399891,30 L34.600109,30 C35.373403,30 36,29.3281401 36,28.5002921 C36,27.6718597 35.373403,27 34.600109,27 Z" id="Path"></path>
                    <path d="M34.5849509,35 C35.3666181,35 36,34.3281401 36,33.5002921 C36,32.6718597 35.3666181,32 34.5849509,32 L23.4150491,32 C22.6333819,32 22,32.6718597 22,33.5002921 C22,34.3281401 22.6333819,35 23.4150491,35 L34.5849509,35 Z" id="Path"></path>
                    <path d="M33.6208642,12.3933269 C33.0353987,11.868891 32.0853317,11.868891 31.4998662,12.3933269 C30.9138162,12.9172399 30.9138162,13.7674221 31.4998662,14.291858 L33.3789653,15.9728762 L31.4390993,17.7082727 C30.8536336,18.2327086 30.8536336,19.0828907 31.4390993,19.6068038 C31.7324163,19.8687603 32.1162995,20 32.5001826,20 C32.8840657,20 33.2679488,19.8687603 33.5606818,19.6068038 L36.5604625,16.9224032 C37.1465125,16.3979673 37.1465125,15.548308 36.5604625,15.0238722 L33.6208642,12.3933269 Z" id="Path"></path>
                    <path d="M10.5604946,12.3933269 C9.97507186,11.868891 9.02507438,11.868891 8.43906723,12.3933269 L5.43950536,15.0777274 C4.85349821,15.6021633 4.85349821,16.4518226 5.43950536,16.9762585 L8.378889,19.6068038 C8.6721846,19.8687603 9.05603982,20 9.43989489,20 C9.82316574,20 10.2076052,19.8687603 10.5003166,19.6068038 C11.0857393,19.0828907 11.0857393,18.2327086 10.5003166,17.7082727 L8.62135459,16.0272544 L10.5604946,14.291858 C11.1465018,13.7674221 11.1465018,12.9172399 10.5604946,12.3933269 Z" id="Path"></path>
                    <path d="M31.2518503,23.3323924 C31.3056096,23.4135799 31.3687182,23.4900949 31.4376704,23.5590167 C31.5066224,23.629691 31.584924,23.6910197 31.6655628,23.7465077 C31.7485391,23.8002434 31.8350214,23.8469701 31.9255941,23.8843515 C32.0155823,23.9217329 32.109661,23.9503529 32.2060772,23.9696276 C32.3030775,23.9894866 32.4006622,24 32.4982469,24 C32.5975847,24 32.6951695,23.9894866 32.7921698,23.9696276 C32.8885859,23.9503529 32.9826646,23.9217329 33.0726528,23.8843515 C33.1626412,23.8469701 33.2497078,23.8002434 33.3309311,23.7465077 C33.4133229,23.6910197 33.4898715,23.629691 33.5588235,23.5590167 C33.6295285,23.4900949 33.6908843,23.4135799 33.7463965,23.3323924 C33.8007402,23.2500365 33.8469031,23.1630081 33.8843008,23.0730591 C33.9222829,22.9831103 33.9503312,22.8890728 33.9701986,22.7926989 C33.9894818,22.695157 34,22.597615 34,22.4989049 C34,22.4013629 33.9894818,22.3020686 33.9701986,22.206279 C33.9503312,22.1104891 33.9222829,22.0158676 33.8843008,21.9259188 C33.8469031,21.8365539 33.8007402,21.7489414 33.7463965,21.6665855 C33.6926374,21.585982 33.6295285,21.509467 33.5605765,21.4387929 C33.4916245,21.3698711 33.4133229,21.3085422 33.3326841,21.2530543 C33.2497078,21.1987344 33.1626412,21.1525918 33.0726528,21.1146264 C32.9826646,21.077245 32.8885859,21.049209 32.7921698,21.0293502 C32.5987534,20.9902166 32.3994935,20.9902166 32.2060772,21.0293502 C32.109661,21.049209 32.0155823,21.077245 31.9255941,21.1146264 C31.8350214,21.1525918 31.7485391,21.1987344 31.6655628,21.2530543 C31.584924,21.3085422 31.5066224,21.3698711 31.4376704,21.4387929 C31.3687182,21.509467 31.3056096,21.585982 31.2518503,21.6665855 C31.1975067,21.7495254 31.1513439,21.8365539 31.1139461,21.9259188 C31.0759641,22.0158676 31.0479158,22.1104891 31.0280483,22.206279 C31.008765,22.3026528 31,22.4013629 31,22.4989049 C31,22.597615 31.008765,22.695157 31.0280483,22.7926989 C31.0479158,22.8890728 31.0759641,22.9831103 31.1139461,23.0730591 C31.1513439,23.1630081 31.1975067,23.2500365 31.2518503,23.3323924 Z" id="Path"></path>
                </g>
            </g>
        </g>
    </g>
</svg>