<?xml version="1.0" encoding="UTF-8"?>
<svg width="76px" height="82px" viewBox="0 0 76 82" version="1.1" xmlns="http://www.w3.org/2000/svg" xmlns:xlink="http://www.w3.org/1999/xlink">
    <!-- Generator: Sketch 52.2 (67145) - http://www.bohemiancoding.com/sketch -->
    <title>Web design</title>
    <desc>Created with Sketch.</desc>
    <g id="Page-1" stroke="none" stroke-width="1" fill="none" fill-rule="evenodd">
        <g id="lp_webdev" transform="translate(-1064.000000, -1638.000000)" fill="#FFFFFF">
            <g id="3" transform="translate(0.000000, 1494.000000)">
                <g id="Group-6">
                    <g id="Web-design" transform="translate(1064.000000, 144.000000)">
                        <path d="M69.9361702,20.0647021 C70.6059404,20.0647021 71.1489362,19.4790128 71.1489362,18.7561915 L71.1489362,13.0851064 L74.787234,13.0851064 C75.4570043,13.0851064 76,12.499417 76,11.7765957 L76,1.30851064 C76,0.585689362 75.4570043,0 74.787234,0 L65.0851064,0 C64.4153362,0 63.8723404,0.585689362 63.8723404,1.30851064 L63.8723404,5.23404255 L12.1276596,5.23404255 L12.1276596,1.30851064 C12.1276596,0.585689362 11.5846638,0 10.9148936,0 L1.21276596,0 C0.542995745,0 0,0.585689362 0,1.30851064 L0,11.7765957 C0,12.499417 0.542995745,13.0851064 1.21276596,13.0851064 L4.85106383,13.0851064 L4.85106383,68.9148936 L1.21276596,68.9148936 C0.542995745,68.9148936 0,69.500583 0,70.2234043 L0,80.6914894 C0,81.4143106 0.542995745,82 1.21276596,82 L10.9148936,82 C11.5846638,82 12.1276596,81.4143106 12.1276596,80.6914894 L12.1276596,76.7659574 L63.8723404,76.7659574 L63.8723404,80.6914894 C63.8723404,81.4143106 64.4153362,82 65.0851064,82 L74.787234,82 C75.4570043,82 76,81.4143106 76,80.6914894 L76,70.2234043 C76,69.500583 75.4570043,68.9148936 74.787234,68.9148936 L71.1489362,68.9148936 L71.1489362,23.990234 C71.1489362,23.2674128 70.6059404,22.6817234 69.9361702,22.6817234 C69.2664,22.6817234 68.7234043,23.2674128 68.7234043,23.990234 L68.7234043,68.9148936 L65.0851064,68.9148936 C64.4153362,68.9148936 63.8723404,69.500583 63.8723404,70.2234043 L63.8723404,74.1489362 L12.1276596,74.1489362 L12.1276596,70.2234043 C12.1276596,69.500583 11.5846638,68.9148936 10.9148936,68.9148936 L7.27659574,68.9148936 L7.27659574,13.0851064 L10.9148936,13.0851064 C11.5846638,13.0851064 12.1276596,12.499417 12.1276596,11.7765957 L12.1276596,7.85106383 L63.8723404,7.85106383 L63.8723404,11.7765957 C63.8723404,12.499417 64.4153362,13.0851064 65.0851064,13.0851064 L68.7234043,13.0851064 L68.7234043,18.7561915 C68.7234043,19.4788383 69.2664,20.0647021 69.9361702,20.0647021 Z M66.2978723,71.5319149 L73.5744681,71.5319149 L73.5744681,79.3829787 L66.2978723,79.3829787 L66.2978723,71.5319149 Z M9.70212766,79.3829787 L2.42553191,79.3829787 L2.42553191,71.5319149 L9.70212766,71.5319149 L9.70212766,79.3829787 Z M9.70212766,10.4680851 L2.42553191,10.4680851 L2.42553191,2.61702128 L9.70212766,2.61702128 L9.70212766,10.4680851 Z M66.2978723,2.61702128 L73.5744681,2.61702128 L73.5744681,10.4680851 L66.2978723,10.4680851 L66.2978723,2.61702128 Z" id="Shape" fill-rule="nonzero"></path>
                        <path d="M60,18.3158449 C60,17.5889722 59.4527704,17 58.7777778,17 L17.2222222,17 C16.5472296,17 16,17.5889722 16,18.3158449 L16,40.6841551 C16,41.4110278 16.5472296,42 17.2222222,42 L58.7777778,42 C59.4527704,42 60,41.4110278 60,40.6841551 L60,18.3158449 Z M18.4444444,20.4448819 L35.2669481,29.5 L18.4444444,38.5551181 L18.4444444,20.4448819 Z M22.3997185,19.6316898 L53.6001185,19.6316898 L38,28.0288854 L22.3997185,19.6316898 Z M38,30.9711146 L53.6002815,39.3683102 L22.3997185,39.3683102 L38,30.9711146 Z M40.7330519,29.5 L57.5555556,20.4448819 L57.5555556,38.5552936 L40.7330519,29.5 Z" id="Shape" fill-rule="nonzero"></path>
                        <path d="M35.7647059,62 L17.2352941,62 C16.5530824,62 16,62.6714 16,63.5 C16,64.3286 16.5530824,65 17.2352941,65 L35.7647059,65 C36.4469176,65 37,64.3286 37,63.5 C37,62.6714 36.4469176,62 35.7647059,62 Z" id="Path"></path>
                        <path d="M58.7647059,62 L40.2352941,62 C39.5530824,62 39,62.6714 39,63.5 C39,64.3286 39.5530824,65 40.2352941,65 L58.7647059,65 C59.4469176,65 60,64.3286 60,63.5 C60,62.6714 59.4469176,62 58.7647059,62 Z" id="Path"></path>
                        <path d="M35.7647059,56 L17.2352941,56 C16.5530824,56 16,56.6714 16,57.5 C16,58.3286 16.5530824,59 17.2352941,59 L35.7647059,59 C36.4469176,59 37,58.3286 37,57.5 C37,56.6714 36.4469176,56 35.7647059,56 Z" id="Path"></path>
                        <path d="M58.7647059,56 L40.2352941,56 C39.5530824,56 39,56.6714 39,57.5 C39,58.3286 39.5530824,59 40.2352941,59 L58.7647059,59 C59.4469176,59 60,58.3286 60,57.5 C60,56.6714 59.4469176,56 58.7647059,56 Z" id="Path"></path>
                        <path d="M35.7647059,51 L17.2352941,51 C16.5530824,51 16,51.6714 16,52.5 C16,53.3286 16.5530824,54 17.2352941,54 L35.7647059,54 C36.4469176,54 37,53.3286 37,52.5 C37,51.6714 36.4469176,51 35.7647059,51 Z" id="Path"></path>
                        <path d="M58.7647059,51 L40.2352941,51 C39.5530824,51 39,51.6714 39,52.5 C39,53.3286 39.5530824,54 40.2352941,54 L58.7647059,54 C59.4469176,54 60,53.3286 60,52.5 C60,51.6714 59.4469176,51 58.7647059,51 Z" id="Path"></path>
                        <path d="M58.7777778,45 L17.2222222,45 C16.5472296,45 16,45.6714 16,46.5 C16,47.3286 16.5472296,48 17.2222222,48 L58.7777778,48 C59.4527704,48 60,47.3286 60,46.5 C60,45.6714 59.4527704,45 58.7777778,45 Z" id="Path"></path>
                    </g>
                </g>
            </g>
        </g>
    </g>
</svg>