<?xml version="1.0" encoding="UTF-8"?>
<svg width="67px" height="64px" viewBox="0 0 67 64" version="1.1" xmlns="http://www.w3.org/2000/svg" xmlns:xlink="http://www.w3.org/1999/xlink">
    <!-- Generator: Sketch 52.2 (67145) - http://www.bohemiancoding.com/sketch -->
    <title>wireframing</title>
    <desc>Created with Sketch.</desc>
    <g id="Page-1" stroke="none" stroke-width="1" fill="none" fill-rule="evenodd">
        <g id="lp_webdev" transform="translate(-1068.000000, -2705.000000)" fill="#313131" fill-rule="nonzero">
            <g id="Group-7" transform="translate(407.000000, 2410.000000)">
                <g id="wireframing" transform="translate(661.000000, 295.000000)">
                    <path d="M63.0731965,53.0302144 L63.0731965,20.6466862 C63.0731965,19.6135478 62.1939851,18.7753412 61.1103059,18.7753412 C60.0261154,18.7753412 59.1474152,19.6135478 59.1474152,20.6466862 L59.1474152,30.0034113 L49.3329621,30.0034113 C48.2487716,30.0034113 47.3700715,30.8411307 47.3700715,31.8747564 C47.3700715,32.9078948 48.2487716,33.7461014 49.3329621,33.7461014 L59.1474152,33.7461014 L59.1474152,53.0302144 C57.4769134,53.5950292 56.1514511,54.8586744 55.5590057,56.4512671 L35.5932389,56.4512671 L35.5932389,43.1023392 C35.5932389,42.0692008 34.7140274,41.2309942 33.6303482,41.2309942 C32.5461579,41.2309942 31.6674576,42.0692008 31.6674576,43.1023392 L31.6674576,56.4512671 L11.4394608,56.4512671 C10.8470154,54.8586744 9.52155307,53.5950292 7.8515625,53.0302144 L7.8515625,33.7461014 L21.8530045,33.7461014 C22.9371948,33.7461014 23.8158951,32.9078948 23.8158951,31.8747564 C23.8158951,30.8411307 22.9371948,30.0034113 21.8530045,30.0034113 L7.8515625,30.0034113 L7.8515625,10.9683236 C9.52155307,10.4035088 10.8470154,9.13986358 11.4394608,7.54775828 L31.6674576,7.54775828 L31.6674576,16.9039961 C31.6674576,17.9376218 32.5461579,18.7753412 33.6303482,18.7753412 C34.7140274,18.7753412 35.5932389,17.9376218 35.5932389,16.9039961 L35.5932389,7.54775828 L45.4071809,7.54775828 C46.4913712,7.54775828 47.3700715,6.70955166 47.3700715,5.67641326 C47.3700715,4.64278756 46.4913712,3.80506823 45.4071809,3.80506823 L11.4394608,3.80506823 C10.6292571,1.62719301 8.44758612,0.0623781676 5.88867187,0.0623781676 C2.64172363,0.0623781676 -8.52651283e-14,2.58089669 -8.52651283e-14,5.67641326 C-8.52651283e-14,8.11598447 1.64085382,10.1959064 3.92578125,10.9683236 L3.92578125,53.0302144 C1.64085382,53.8026316 -8.52651283e-14,55.8830409 -8.52651283e-14,58.3226121 C-8.52651283e-14,61.4181287 2.64172363,63.9361598 5.88867187,63.9361598 C8.44758612,63.9361598 10.6292571,62.3718324 11.4394608,60.1939572 L55.5590057,60.1939572 C56.3692093,62.3718324 58.5513916,63.9361598 61.1103059,63.9361598 C64.3572541,63.9361598 66.9984665,61.4181287 66.9984665,58.3226121 C66.9984665,55.8830409 65.3576126,53.8026316 63.0731965,53.0302144 Z M5.88867187,3.80506823 C6.97081753,3.80506823 7.8515625,4.64424945 7.8515625,5.67641326 C7.8515625,6.70808964 6.97081753,7.54775828 5.88867187,7.54775828 C4.80601495,7.54775828 3.92578125,6.70808964 3.92578125,5.67641326 C3.92578125,4.64424945 4.80601495,3.80506823 5.88867187,3.80506823 Z M5.88867187,60.1939572 C4.80601495,60.1939572 3.92578125,59.3542885 3.92578125,58.3226121 C3.92578125,57.2904483 4.80601495,56.4512671 5.88867187,56.4512671 C6.97081753,56.4512671 7.8515625,57.2904483 7.8515625,58.3226121 C7.8515625,59.3542885 6.97081753,60.1939572 5.88867187,60.1939572 Z M61.1103059,60.1939572 C60.0276489,60.1939572 59.1474152,59.3542885 59.1474152,58.3226121 C59.1474152,57.2904483 60.0276489,56.4512671 61.1103059,56.4512671 C62.1924515,56.4512671 63.0731965,57.2904483 63.0731965,58.3226121 C63.0731965,59.3542885 62.1924515,60.1939572 61.1103059,60.1939572 Z" id="Shape"></path>
                    <path d="M56.9463196,1.70662774 L32.8175888,24.710039 C32.8175888,24.710039 32.8175888,24.710039 32.8170776,24.7105263 C32.8170776,24.7105263 32.8170776,24.7110137 32.8165665,24.7110137 L29.089119,28.2651072 C28.8734054,28.4702729 28.7108536,28.7207603 28.6147538,28.9965887 L25.9852982,36.5165692 L23.5373078,38.8508771 C22.7705535,39.581384 22.7705535,40.7665692 23.5373078,41.497076 C24.3035507,42.2275829 25.5467148,42.2280702 26.3129578,41.497076 L28.7609481,39.1632554 L36.6493148,36.6564328 C36.9386368,36.5643275 37.2013778,36.409844 37.4165803,36.2041911 L65.2737809,9.64619877 C67.5750656,7.45224172 67.5755768,3.9005848 65.2737809,1.70662774 C62.9781189,-0.48196878 59.2424927,-0.48196878 56.9463196,1.70662774 Z M34.9680786,33.245614 L30.8046036,34.5687135 L32.1924285,30.5989278 L34.2049027,28.6803119 L36.9810638,31.3265107 L34.9680786,33.245614 Z M39.7567139,28.6803119 L36.9810638,26.0336257 L55.5574723,8.32358674 L58.3336335,10.9697856 L39.7567139,28.6803119 Z M62.4981308,6.9995127 L61.1092834,8.32358674 L58.3336335,5.67690055 L59.7219695,4.35331381 C60.4877014,3.62378168 61.7329102,3.62378168 62.4981308,4.35331381 C63.2653962,5.08479526 63.2653962,6.26803125 62.4981308,6.9995127 Z" id="Shape"></path>
                </g>
            </g>
        </g>
    </g>
</svg>