<?xml version="1.0" encoding="UTF-8"?>
<svg width="74px" height="74px" viewBox="0 0 74 74" version="1.1" xmlns="http://www.w3.org/2000/svg" xmlns:xlink="http://www.w3.org/1999/xlink">
    <!-- Generator: sketchtool 52.2 (67145) - http://www.bohemiancoding.com/sketch -->
    <title>A6D24F4E-079C-4A50-AB5E-B8E42AD7710B</title>
    <desc>Created with sketchtool.</desc>
    <g id="Page-1" stroke="none" stroke-width="1" fill="none" fill-rule="evenodd">
        <g id="lp_webdev" transform="translate(-1066.000000, -4333.000000)" fill="#FFFFFF" fill-rule="nonzero">
            <g id="Group-9" transform="translate(0.000000, 3742.000000)">
                <g id="WP" transform="translate(1066.000000, 591.000000)">
                    <path d="M0,37 C0,57.4366337 16.5635384,74 37,74 C57.4319884,74 74,57.4368057 74,37 C73.999828,16.5685277 57.4318164,0 37,0 C16.5635384,0 0,16.5685277 0,37 Z M2.85114317,37 C2.85114317,32.0493818 3.91713902,27.3513268 5.80878271,23.1021394 L22.097908,67.7304786 C10.7084753,62.2016144 2.85114317,50.5154027 2.85114317,37 Z M37,71.1479966 C33.6485476,71.1479966 30.4106455,70.6597306 27.3521871,69.7613074 L37.6006119,39.9918766 L48.0967827,68.7455489 C48.1649129,68.9157022 48.2493874,69.0658982 48.3376469,69.2104167 C44.7917827,70.4637704 40.9737421,71.1479966 37,71.1479966 Z M64.5973524,36.3596455 C66.5454271,31.4878243 67.1973086,27.5930512 67.1973086,24.1299411 C67.1973086,22.8724583 67.1130062,21.7058156 66.9612618,20.6165936 C69.6271116,25.4832534 71.1431793,31.0616668 71.1431793,37.0008602 C71.1431793,49.6006352 64.31795,60.5971152 54.1687955,66.5132545 L64.5973524,36.3596455 Z M57.2343078,25.8583133 C58.5303289,28.1313826 60.051902,31.0546129 60.051902,35.2764451 C60.051902,38.2012239 59.1822105,41.8771546 57.452806,46.317485 L54.0450946,57.6936701 L41.7037325,20.9914814 C43.7641531,20.8794796 45.6108928,20.6654546 45.6108928,20.6654546 C47.4512669,20.4469564 47.2312203,17.7475576 45.3965237,17.8487206 C45.3965237,17.8487206 39.8633584,18.2855449 36.2930638,18.2855449 C32.9367941,18.2855449 27.3012615,17.8487206 27.3012615,17.8487206 C25.4600272,17.7475576 25.2465184,20.5586141 27.0824192,20.6654546 C27.0824192,20.6654546 28.827996,20.8794796 30.6688862,20.9914814 L35.9840695,35.5684068 L28.5131522,57.9754811 L16.0751003,20.9914814 C18.1351769,20.8794796 19.9867339,20.6654546 19.9867339,20.6654546 C21.8283122,20.4469564 21.6031043,17.7475576 19.7678916,17.8487206 C19.7678916,17.8487206 14.2391995,18.2855449 10.6644316,18.2855449 C10.0244212,18.2855449 9.27206488,18.2686844 8.46964321,18.2458023 C14.5772695,8.97528585 25.0730962,2.8520034 37.000172,2.8520034 C45.8904673,2.8520034 53.9850506,6.25283294 60.0577516,11.8209236 C59.9116847,11.8093965 59.7656178,11.7920199 59.6193789,11.7920199 C56.2574317,11.7920199 53.8830274,14.7119814 53.8830274,17.8495808 C53.8835436,20.6664869 55.5055915,23.0470848 57.2343078,25.8583133 Z" id="WordPress"></path>
                </g>
            </g>
        </g>
    </g>
</svg>